<svg width="135" height="40" viewBox="0 0 135 40" fill="none" xmlns="http://www.w3.org/2000/svg">
<path fill-rule="evenodd" clip-rule="evenodd" d="M130 40H5C2.25 40 0 37.75 0 35V5C0 2.25 2.25 0 5 0H130C132.75 0 135 2.25 135 5V35C135 37.75 132.75 40 130 40Z" fill="black"/>
<path d="M130 0.8C132.32 0.8 134.2 2.68 134.2 5V35C134.2 37.32 132.32 39.2 130 39.2H5C2.68 39.2 0.8 37.32 0.8 35V5C0.8 2.68 2.68 0.8 5 0.8H130ZM130 0H5C2.25 0 0 2.25 0 5V35C0 37.75 2.25 40 5 40H130C132.75 40 135 37.75 135 35V5C135 2.25 132.75 0 130 0Z" fill="#A6A6A6"/>
<path d="M68.14 21.75C65.79 21.75 63.87 23.54 63.87 26C63.87 28.45 65.79 30.25 68.14 30.25C70.49 30.25 72.41 28.45 72.41 26C72.41 23.54 70.49 21.75 68.14 21.75ZM68.14 28.58C66.85 28.58 65.74 27.5201 65.74 26C65.74 24.47 66.85 23.42 68.14 23.42C69.43 23.42 70.54 24.47 70.54 26C70.54 27.5201 69.42 28.58 68.14 28.58ZM58.82 21.75C56.47 21.75 54.55 23.54 54.55 26C54.55 28.45 56.47 30.25 58.82 30.25C61.17 30.25 63.09 28.45 63.09 26C63.09 23.54 61.17 21.75 58.82 21.75ZM58.82 28.58C57.53 28.58 56.42 27.5201 56.42 26C56.42 24.47 57.53 23.42 58.82 23.42C60.11 23.42 61.22 24.47 61.22 26C61.22 27.5201 60.11 28.58 58.82 28.58ZM47.74 23.06V24.8601H52.06C51.93 25.8701 51.59 26.62 51.08 27.13C50.45 27.76 49.47 28.4501 47.75 28.4501C45.09 28.4501 43.01 26.31 43.01 23.65C43.01 20.99 45.09 18.85 47.75 18.85C49.18 18.85 50.23 19.41 51 20.14L52.27 18.8701C51.19 17.8401 49.76 17.05 47.74 17.05C44.1 17.05 41.04 20.01 41.04 23.66C41.04 27.3 44.1 30.2701 47.74 30.2701C49.71 30.2701 51.19 29.63 52.35 28.42C53.54 27.23 53.91 25.5501 53.91 24.2001C53.91 23.7801 53.88 23.39 53.81 23.07H47.74V23.06ZM93.05 24.46C92.7 23.51 91.62 21.75 89.41 21.75C87.22 21.75 85.4 23.47 85.4 26C85.4 28.38 87.2 30.25 89.62 30.25C91.57 30.25 92.7 29.0601 93.16 28.3701L91.71 27.4C91.23 28.11 90.57 28.58 89.62 28.58C88.67 28.58 87.99 28.1401 87.56 27.2901L93.25 24.9401L93.05 24.46ZM87.25 25.88C87.2 24.24 88.52 23.4 89.47 23.4C90.21 23.4 90.84 23.77 91.05 24.3L87.25 25.88ZM82.63 30H84.5V17.5H82.63V30ZM79.57 22.7001H79.5C79.08 22.2001 78.28 21.75 77.26 21.75C75.13 21.75 73.18 23.62 73.18 26.0201C73.18 28.4001 75.13 30.26 77.26 30.26C78.27 30.26 79.08 29.8101 79.5 29.2901H79.56V29.9C79.56 31.53 78.69 32.4001 77.29 32.4001C76.15 32.4001 75.44 31.58 75.15 30.89L73.52 31.57C73.99 32.7 75.23 34.0801 77.29 34.0801C79.48 34.0801 81.33 32.79 81.33 29.65V22.01H79.56V22.7001H79.57ZM77.42 28.58C76.13 28.58 75.05 27.5 75.05 26.0201C75.05 24.5201 76.13 23.43 77.42 23.43C78.69 23.43 79.69 24.5301 79.69 26.0201C79.7 27.5 78.7 28.58 77.42 28.58ZM101.81 17.5H97.34V30H99.21V25.26H101.82C103.89 25.26 105.92 23.76 105.92 21.38C105.92 19 103.87 17.5 101.81 17.5ZM101.85 23.5201H99.2V19.23H101.85C103.25 19.23 104.04 20.3901 104.04 21.3701C104.04 22.3501 103.25 23.5201 101.85 23.5201ZM113.39 21.73C112.04 21.73 110.64 22.33 110.06 23.64L111.72 24.33C112.07 23.64 112.73 23.41 113.42 23.41C114.39 23.41 115.37 23.9901 115.38 25.0201V25.15C115.04 24.96 114.32 24.67 113.43 24.67C111.64 24.67 109.83 25.65 109.83 27.48C109.83 29.15 111.29 30.23 112.93 30.23C114.18 30.23 114.88 29.67 115.31 29.01H115.37V29.98H117.17V25.1901C117.18 22.97 115.52 21.73 113.39 21.73ZM113.16 28.58C112.55 28.58 111.7 28.2701 111.7 27.5201C111.7 26.5601 112.76 26.1901 113.68 26.1901C114.5 26.1901 114.89 26.3701 115.38 26.6101C115.24 27.76 114.24 28.58 113.16 28.58ZM123.74 22L121.6 27.42H121.54L119.32 22H117.31L120.64 29.58L118.74 33.7901H120.69L125.82 22H123.74ZM106.94 30H108.81V17.5H106.94V30Z" fill="white"/>
<path fill-rule="evenodd" clip-rule="evenodd" d="M10.44 7.53997C10.15 7.84997 9.97998 8.32997 9.97998 8.93997V31.06C9.97998 31.68 10.15 32.16 10.44 32.46L10.51 32.53L22.9 20.15V20V19.85L10.51 7.46997L10.44 7.53997Z" fill="url(#paint0_linear)"/>
<path fill-rule="evenodd" clip-rule="evenodd" d="M27.03 24.28L22.9 20.15V20V19.85L27.03 15.72L27.12 15.77L32.01 18.55C33.41 19.34 33.41 20.64 32.01 21.44L27.12 24.22L27.03 24.28Z" fill="url(#paint1_linear)"/>
<path fill-rule="evenodd" clip-rule="evenodd" d="M27.1199 24.23L22.8999 20L10.4399 32.46C10.8999 32.95 11.6599 33.01 12.5199 32.52L27.1199 24.23Z" fill="url(#paint2_linear)"/>
<path fill-rule="evenodd" clip-rule="evenodd" d="M27.1199 15.78L12.5099 7.47999C11.6499 6.98999 10.8899 7.04999 10.4299 7.53999L22.8999 20L27.1199 15.78Z" fill="url(#paint3_linear)"/>
<path opacity="0.2" fill-rule="evenodd" clip-rule="evenodd" d="M27.0299 24.1299L12.5099 32.3799C11.6999 32.8399 10.9699 32.8099 10.5099 32.3899L10.4399 32.4599L10.5099 32.5299C10.9799 32.9499 11.6999 32.9799 12.5099 32.5199L27.1199 24.2199L27.0299 24.1299Z" fill="black"/>
<path opacity="0.12" fill-rule="evenodd" clip-rule="evenodd" d="M10.44 32.3199C10.15 32.0099 9.97998 31.5299 9.97998 30.9199V31.0699C9.97998 31.6899 10.15 32.1699 10.44 32.4699L10.51 32.3999L10.44 32.3199Z" fill="black"/>
<path opacity="0.12" fill-rule="evenodd" clip-rule="evenodd" d="M32.01 21.3L27.02 24.13L27.11 24.22L32 21.44C32.7 21.04 33.05 20.52 33.05 20C33 20.47 32.65 20.94 32.01 21.3Z" fill="black"/>
<path opacity="0.25" fill-rule="evenodd" clip-rule="evenodd" d="M12.51 7.61994L32.01 18.6999C32.64 19.0599 33 19.5199 33.06 19.9999C33.06 19.4799 32.71 18.9499 32.01 18.5599L12.51 7.47994C11.11 6.68994 9.96997 7.34994 9.96997 8.94994V9.09994C9.96997 7.48994 11.12 6.82994 12.51 7.61994Z" fill="white"/>
<path d="M41.28 13V7H43.11C44.03 7 44.77 7.28 45.32 7.83C45.87 8.39 46.15 9.11 46.15 10C46.15 10.89 45.87 11.61 45.32 12.17C44.77 12.72 44.04 13 43.12 13H41.28ZM42.05 12.26H43.11C43.8 12.26 44.35 12.06 44.76 11.66C45.17 11.26 45.37 10.71 45.37 9.99C45.37 9.28 45.17 8.73 44.76 8.33C44.35 7.93 43.81 7.73 43.11 7.73H42.05V12.26Z" fill="white" stroke="white" stroke-width="0.2"/>
<path fill-rule="evenodd" clip-rule="evenodd" d="M47.24 13V7H48.01V13H47.24Z" fill="white" stroke="white" stroke-width="0.2"/>
<path fill-rule="evenodd" clip-rule="evenodd" d="M51.08 13.1301C50.64 13.1301 50.22 12.9901 49.8 12.7001C49.38 12.4101 49.11 12.0201 48.98 11.5001L49.68 11.2201C49.76 11.5501 49.93 11.8301 50.19 12.0501C50.45 12.2801 50.74 12.3901 51.07 12.3901C51.4 12.3901 51.69 12.3001 51.93 12.1301C52.17 11.9501 52.29 11.7201 52.29 11.4101C52.29 11.0801 52.17 10.8201 51.93 10.6401C51.69 10.4601 51.32 10.2901 50.8 10.1301C50.27 9.96011 49.87 9.75011 49.59 9.48011C49.32 9.21011 49.18 8.88011 49.18 8.46011C49.18 8.03011 49.35 7.66011 49.69 7.34011C50.03 7.02011 50.48 6.86011 51.02 6.86011C51.53 6.86011 51.94 6.99011 52.26 7.24011C52.58 7.49011 52.79 7.77011 52.88 8.07011L52.18 8.36011C52.13 8.17011 52.01 7.99011 51.81 7.83011C51.61 7.67011 51.36 7.59011 51.04 7.59011C50.74 7.59011 50.49 7.67011 50.28 7.84011C50.07 8.01011 49.97 8.21011 49.97 8.46011C49.97 8.68011 50.07 8.87011 50.26 9.03011C50.45 9.18011 50.74 9.32011 51.11 9.44011C51.41 9.54011 51.65 9.63011 51.85 9.72011C52.05 9.81011 52.25 9.93011 52.45 10.0801C52.65 10.2301 52.81 10.4101 52.91 10.6301C53.01 10.8501 53.07 11.1101 53.07 11.4001C53.07 11.6901 53.01 11.9501 52.89 12.1801C52.77 12.4101 52.61 12.5901 52.41 12.7201C52.21 12.8501 52 12.9601 51.77 13.0301C51.55 13.1001 51.32 13.1301 51.08 13.1301Z" fill="white" stroke="white" stroke-width="0.2"/>
<path d="M54.9601 13H54.1901V7H56.2401C56.7501 7 57.1901 7.17 57.5601 7.51C57.9301 7.85 58.1201 8.27 58.1201 8.79C58.1201 9.3 57.9301 9.73 57.5601 10.07C57.1901 10.41 56.7501 10.58 56.2401 10.58H54.9701V13H54.9601ZM54.9601 9.83H56.2501C56.5701 9.83 56.8301 9.72 57.0301 9.5C57.2301 9.28 57.3201 9.04 57.3201 8.78C57.3201 8.52 57.2201 8.28 57.0301 8.06C56.8301 7.84 56.5701 7.73 56.2501 7.73H54.9601V9.83Z" fill="white" stroke="white" stroke-width="0.2"/>
<path d="M63.9901 12.2201C63.4001 12.8301 62.6701 13.1301 61.7901 13.1301C60.9101 13.1301 60.1801 12.8301 59.5901 12.2201C59.0001 11.6201 58.7001 10.8801 58.7001 10.0001C58.7001 9.12012 59.0001 8.38012 59.5901 7.78012C60.1801 7.17012 60.9101 6.87012 61.7901 6.87012C62.6601 6.87012 63.3901 7.17012 63.9901 7.78012C64.5801 8.39012 64.8801 9.13012 64.8801 10.0001C64.8701 10.8801 64.5701 11.6201 63.9901 12.2201ZM60.1601 11.7201C60.6001 12.1701 61.1501 12.3901 61.7901 12.3901C62.4301 12.3901 62.9801 12.1701 63.4201 11.7201C63.8601 11.2701 64.0901 10.7001 64.0901 10.0001C64.0901 9.30012 63.8701 8.73012 63.4201 8.28012C62.9801 7.83012 62.4301 7.61012 61.7901 7.61012C61.1501 7.61012 60.6001 7.83012 60.1601 8.28012C59.7101 8.73012 59.4901 9.30012 59.4901 10.0001C59.4901 10.7001 59.7101 11.2701 60.1601 11.7201Z" fill="white" stroke="white" stroke-width="0.2"/>
<path fill-rule="evenodd" clip-rule="evenodd" d="M65.9501 13V7H66.8901L69.8101 11.67H69.8401L69.8101 10.51V7H70.5801V13H69.7801L66.7301 8.11H66.7001L66.7301 9.27V13H65.9501Z" fill="white" stroke="white" stroke-width="0.2"/>
<path fill-rule="evenodd" clip-rule="evenodd" d="M71.9501 13V7H72.7201V13H71.9501Z" fill="white" stroke="white" stroke-width="0.2"/>
<path d="M74.1 13V7H76.27C76.74 7 77.15 7.16 77.49 7.46C77.83 7.78 78 8.17 78 8.63C78 8.92 77.93 9.17 77.78 9.38C77.63 9.6 77.44 9.76 77.19 9.87V9.9C77.49 10 77.73 10.17 77.92 10.42C78.11 10.67 78.21 10.95 78.21 11.27C78.21 11.76 78.03 12.17 77.67 12.49C77.3 12.84 76.87 13 76.38 13H74.1ZM74.87 9.57H76.27C76.56 9.57 76.79 9.47 76.97 9.28C77.15 9.09 77.23 8.88 77.23 8.65C77.23 8.42 77.15 8.21 76.97 8.02C76.8 7.83 76.58 7.73 76.3 7.73H74.87V9.57ZM74.87 12.26H76.42C76.72 12.26 76.96 12.16 77.14 11.95C77.32 11.74 77.42 11.52 77.42 11.27C77.42 11.02 77.33 10.8 77.13 10.6C76.94 10.4 76.69 10.29 76.38 10.29H74.86V12.26H74.87Z" fill="white" stroke="white" stroke-width="0.2"/>
<path fill-rule="evenodd" clip-rule="evenodd" d="M79.24 13V7H80.01V12.26H82.61V13H79.24Z" fill="white" stroke="white" stroke-width="0.2"/>
<path fill-rule="evenodd" clip-rule="evenodd" d="M87.0801 7.74H84.3501V9.64H86.8101V10.36H84.3501V12.26H87.0801V13H83.5801V7H87.0801V7.74Z" fill="white" stroke="white" stroke-width="0.2"/>
<path fill-rule="evenodd" clip-rule="evenodd" d="M93.8101 7.74H91.0801V9.64H93.5401V10.36H91.0801V12.26H93.8101V13H90.3101V7H93.8101V7.74Z" fill="white" stroke="white" stroke-width="0.2"/>
<path fill-rule="evenodd" clip-rule="evenodd" d="M95.01 13V7H95.95L98.87 11.67H98.9L98.87 10.51V7H99.64V13H98.84L95.79 8.11H95.76L95.79 9.27V13H95.01Z" fill="white" stroke="white" stroke-width="0.2"/>
<defs>
<linearGradient id="paint0_linear" x1="21.7996" y1="8.70977" x2="1.95818" y2="13.9837" gradientUnits="userSpaceOnUse">
<stop stop-color="#00A0FF"/>
<stop offset="0.00657445" stop-color="#00A1FF"/>
<stop offset="0.2601" stop-color="#00BEFF"/>
<stop offset="0.5122" stop-color="#00D2FF"/>
<stop offset="0.7604" stop-color="#00DFFF"/>
<stop offset="1" stop-color="#00E3FF"/>
</linearGradient>
<linearGradient id="paint1_linear" x1="33.8343" y1="20.0015" x2="9.63742" y2="20.0015" gradientUnits="userSpaceOnUse">
<stop stop-color="#FFE000"/>
<stop offset="0.4087" stop-color="#FFBD00"/>
<stop offset="0.7754" stop-color="#FFA500"/>
<stop offset="1" stop-color="#FF9C00"/>
</linearGradient>
<linearGradient id="paint2_linear" x1="24.8268" y1="22.2962" x2="8.89145" y2="49.1094" gradientUnits="userSpaceOnUse">
<stop stop-color="#FF3A44"/>
<stop offset="1" stop-color="#C31162"/>
</linearGradient>
<linearGradient id="paint3_linear" x1="7.29713" y1="0.176288" x2="14.4058" y2="12.1516" gradientUnits="userSpaceOnUse">
<stop stop-color="#32A071"/>
<stop offset="0.0685" stop-color="#2DA771"/>
<stop offset="0.4762" stop-color="#15CF74"/>
<stop offset="0.8009" stop-color="#06E775"/>
<stop offset="1" stop-color="#00F076"/>
</linearGradient>
</defs>
</svg>
