<svg width="120" height="40" viewBox="0 0 120 40" fill="none" xmlns="http://www.w3.org/2000/svg">
<g clip-path="url(#clip0)">
<path d="M110.444 -0.000114141H9.56145C9.19372 -0.000114141 8.8304 -0.000114141 8.46364 0.00188586C8.15663 0.00388586 7.85207 0.00969586 7.54211 0.0145859C6.86874 0.0224877 6.19695 0.0815621 5.53259 0.191296C4.86915 0.303418 4.2265 0.514802 3.62637 0.818296C3.02697 1.12436 2.47929 1.52205 2.00318 1.99696C1.52457 2.47052 1.12561 3.0179 0.82165 3.61805C0.516847 4.21699 0.305496 4.85882 0.194896 5.52137C0.083244 6.18307 0.0231632 6.85241 0.0151925 7.52337C0.00588648 7.82997 0.00490373 8.13759 0 8.44423V31.5585C0.00490373 31.869 0.00588648 32.1698 0.0151925 32.4804C0.0231657 33.1513 0.0832464 33.8206 0.194896 34.4823C0.30519 35.1452 0.516554 35.7874 0.82165 36.3866C1.12548 36.9848 1.52449 37.53 2.00318 38.0009C2.47748 38.4779 3.02552 38.8759 3.62637 39.1796C4.2265 39.4839 4.86908 39.6965 5.53259 39.8104C6.19707 39.9192 6.86879 39.9783 7.54211 39.9872C7.85207 39.994 8.15663 39.9979 8.46364 39.9979C8.83039 39.9999 9.19374 39.9999 9.56145 39.9999H110.444C110.804 39.9999 111.171 39.9999 111.531 39.9979C111.837 39.9979 112.15 39.994 112.455 39.9872C113.128 39.9788 113.798 39.9197 114.461 39.8104C115.127 39.6957 115.772 39.4831 116.375 39.1796C116.975 38.8757 117.522 38.4777 117.996 38.0009C118.474 37.5281 118.874 36.9833 119.181 36.3866C119.484 35.787 119.693 35.1448 119.802 34.4823C119.914 33.8205 119.976 33.1514 119.988 32.4804C119.992 32.1698 119.992 31.869 119.992 31.5585C120 31.1952 120 30.8339 120 30.4647V9.53602C120 9.16981 120 8.80653 119.992 8.44423C119.992 8.13759 119.992 7.82997 119.988 7.52333C119.976 6.85231 119.914 6.18312 119.802 5.52133C119.693 4.85917 119.484 4.21739 119.181 3.61801C118.562 2.41508 117.581 1.43591 116.375 0.818206C115.772 0.515453 115.127 0.304126 114.461 0.191206C113.798 0.0809886 113.128 0.0218936 112.455 0.0144459C112.15 0.00956586 111.837 0.00370586 111.531 0.00175586C111.171 -0.000244141 110.804 -0.000244141 110.444 -0.000244141V-0.000114141Z" fill="#A6A6A6"/>
<path d="M8.46856 39.125C8.16303 39.125 7.86487 39.1211 7.56174 39.1143C6.93376 39.1061 6.30725 39.0516 5.68735 38.9512C5.10932 38.8519 4.54937 38.6673 4.02596 38.4033C3.50735 38.1415 3.03433 37.7983 2.62504 37.3867C2.20981 36.98 1.86412 36.5082 1.60166 35.9902C1.33631 35.4688 1.15267 34.9099 1.05714 34.333C0.953972 33.7131 0.898156 33.0863 0.890169 32.458C0.883812 32.2471 0.875488 31.5449 0.875488 31.5449V8.44434C0.875488 8.44434 0.884353 7.75293 0.89022 7.5498C0.897867 6.92248 0.953358 6.29665 1.05621 5.67773C1.15192 5.09925 1.3357 4.53875 1.6012 4.01563C1.8627 3.49794 2.20647 3.02586 2.61919 2.61768C3.03145 2.20562 3.50597 1.8606 4.02547 1.59521C4.54767 1.33209 5.10657 1.14873 5.68343 1.05127C6.30537 0.949836 6.93405 0.894996 7.5642 0.88721L8.46906 0.875H111.526L112.442 0.8877C113.066 0.895099 113.689 0.94945 114.305 1.05029C114.888 1.14898 115.453 1.33362 115.981 1.59814C117.022 2.13299 117.869 2.97916 118.403 4.01807C118.664 4.53758 118.845 5.09351 118.939 5.66699C119.044 6.29099 119.102 6.92174 119.114 7.5542C119.117 7.8374 119.117 8.1416 119.117 8.44434C119.125 8.81934 119.125 9.17627 119.125 9.53613V30.4648C119.125 30.8281 119.125 31.1826 119.117 31.54C119.117 31.8652 119.117 32.1631 119.113 32.4697C119.101 33.0909 119.044 33.7104 118.941 34.3232C118.848 34.9043 118.665 35.4675 118.4 35.9932C118.136 36.5056 117.792 36.9733 117.381 37.3789C116.972 37.7927 116.498 38.1379 115.978 38.4014C115.451 38.6674 114.887 38.8527 114.305 38.9512C113.686 39.0522 113.059 39.1067 112.431 39.1143C112.137 39.1211 111.83 39.125 111.531 39.125L110.444 39.127L8.46856 39.125Z" fill="black"/>
<path d="M24.8384 20.3006C24.8492 19.4659 25.0715 18.6475 25.4847 17.9216C25.8979 17.1956 26.4885 16.5857 27.2016 16.1485C26.7486 15.5034 26.151 14.9724 25.4562 14.5979C24.7614 14.2233 23.9887 14.0155 23.1992 13.9908C21.5153 13.8146 19.8828 14.9957 19.0247 14.9957C18.1499 14.9957 16.8287 14.0083 15.406 14.0375C14.4858 14.0672 13.5889 14.334 12.8028 14.8121C12.0168 15.2901 11.3683 15.9631 10.9205 16.7654C8.98111 20.1138 10.4278 25.0349 12.2856 27.7415C13.2151 29.0668 14.3014 30.5473 15.7228 30.4948C17.1138 30.4372 17.6333 29.6103 19.3123 29.6103C20.9757 29.6103 21.4631 30.4948 22.9133 30.4614C24.4059 30.4372 25.3463 29.1302 26.2432 27.7923C26.911 26.8479 27.4249 25.8042 27.7659 24.6997C26.8987 24.334 26.1587 23.7218 25.6382 22.9395C25.1176 22.1572 24.8394 21.2394 24.8384 20.3006Z" fill="white"/>
<path d="M22.0991 12.2108C22.9129 11.2366 23.3139 9.98445 23.2168 8.72021C21.9735 8.85044 20.825 9.44299 20.0002 10.3798C19.5969 10.8375 19.288 11.3699 19.0913 11.9467C18.8945 12.5235 18.8136 13.1333 18.8533 13.7412C19.4751 13.7476 20.0904 13.6132 20.6526 13.3481C21.2148 13.083 21.7094 12.6942 22.0991 12.2108Z" fill="white"/>
<path d="M42.421 27.1397H37.6743L36.5344 30.4961H34.5239L39.0199 18.0781H41.1088L45.6047 30.4961H43.56L42.421 27.1397ZM38.166 25.5908H41.9285L40.0737 20.1436H40.0218L38.166 25.5908Z" fill="white"/>
<path d="M55.3145 25.9697C55.3145 28.7832 53.8044 30.5908 51.5256 30.5908C50.9483 30.6209 50.3742 30.4883 49.869 30.2082C49.3638 29.928 48.9479 29.5117 48.6689 29.0068H48.6258V33.4912H46.7622V21.4423H48.5661V22.9482H48.6004C48.8922 22.4457 49.3151 22.0316 49.8241 21.7497C50.3332 21.4679 50.9093 21.3289 51.4913 21.3476C53.7956 21.3476 55.3145 23.164 55.3145 25.9697ZM53.399 25.9697C53.399 24.1367 52.449 22.9316 50.9997 22.9316C49.5758 22.9316 48.618 24.1621 48.618 25.9697C48.618 27.7939 49.5758 29.0156 50.9997 29.0156C52.4491 29.0156 53.399 27.8193 53.399 25.9697Z" fill="white"/>
<path d="M65.3074 25.9697C65.3074 28.7832 63.7973 30.5908 61.5185 30.5908C60.9412 30.6209 60.3671 30.4883 59.8619 30.2081C59.3567 29.928 58.9408 29.5117 58.6619 29.0068H58.6187V33.4912H56.7551V21.4423H58.559V22.9482H58.5933C58.885 22.4457 59.308 22.0315 59.817 21.7497C60.3261 21.4679 60.9022 21.3289 61.4842 21.3476C63.7885 21.3476 65.3074 23.164 65.3074 25.9697ZM63.3919 25.9697C63.3919 24.1367 62.442 22.9316 60.9926 22.9316C59.5687 22.9316 58.6109 24.1621 58.6109 25.9697C58.6109 27.7939 59.5687 29.0156 60.9926 29.0156C62.442 29.0156 63.3919 27.8193 63.3919 25.9697H63.3919Z" fill="white"/>
<path d="M71.9117 27.0362C72.0498 28.2676 73.2495 29.0762 74.8888 29.0762C76.4596 29.0762 77.5898 28.2676 77.5898 27.1572C77.5898 26.1934 76.9081 25.6162 75.2943 25.2207L73.6804 24.833C71.3937 24.2822 70.3321 23.2158 70.3321 21.4854C70.3321 19.3428 72.2046 17.8711 74.8634 17.8711C77.4947 17.8711 79.2986 19.3428 79.3594 21.4854H77.4781C77.3655 20.2461 76.3382 19.4981 74.8369 19.4981C73.3356 19.4981 72.3083 20.2549 72.3083 21.3565C72.3083 22.2344 72.9645 22.751 74.5696 23.1465L75.9416 23.4824C78.4966 24.0849 79.5581 25.1084 79.5581 26.9248C79.5581 29.248 77.7023 30.7031 74.7507 30.7031C71.9891 30.7031 70.1245 29.2822 70.004 27.0361L71.9117 27.0362Z" fill="white"/>
<path d="M83.5802 19.2998V21.4424H85.3067V22.9141H83.5802V27.9053C83.5802 28.6807 83.9259 29.042 84.6849 29.042C84.8898 29.0384 85.0945 29.0241 85.2979 28.999V30.4619C84.9567 30.5255 84.6099 30.5543 84.2628 30.5478C82.4246 30.5478 81.7078 29.8593 81.7078 28.1035V22.9141H80.3877V21.4424H81.7078V19.2998H83.5802Z" fill="white"/>
<path d="M86.3066 25.9697C86.3066 23.1211 87.9891 21.3311 90.6126 21.3311C93.245 21.3311 94.9196 23.1211 94.9196 25.9697C94.9196 28.8262 93.2538 30.6084 90.6126 30.6084C87.9724 30.6084 86.3066 28.8262 86.3066 25.9697ZM93.0207 25.9697C93.0207 24.0156 92.1227 22.8623 90.6126 22.8623C89.1025 22.8623 88.2055 24.0244 88.2055 25.9697C88.2055 27.9316 89.1025 29.0762 90.6126 29.0762C92.1227 29.0762 93.0207 27.9316 93.0207 25.9697H93.0207Z" fill="white"/>
<path d="M96.4561 21.4425H98.2335V22.9835H98.2766C98.3969 22.5022 98.6796 22.0769 99.0773 21.779C99.475 21.4811 99.9634 21.3288 100.46 21.3478C100.675 21.347 100.889 21.3703 101.099 21.4171V23.1554C100.828 23.0728 100.545 23.0348 100.262 23.0431C99.9909 23.0321 99.721 23.0797 99.4704 23.1826C99.2199 23.2855 98.9946 23.4412 98.8102 23.6391C98.6257 23.837 98.4863 24.0724 98.4016 24.3291C98.317 24.5857 98.289 24.8576 98.3197 25.1261V30.4962H96.4561L96.4561 21.4425Z" fill="white"/>
<path d="M109.691 27.8369C109.441 29.4805 107.836 30.6084 105.782 30.6084C103.141 30.6084 101.501 28.8437 101.501 26.0127C101.501 23.1729 103.15 21.3311 105.704 21.3311C108.216 21.3311 109.795 23.0518 109.795 25.7969V26.4336H103.383V26.5459C103.353 26.8791 103.395 27.2148 103.505 27.5306C103.616 27.8464 103.793 28.1352 104.024 28.3778C104.255 28.6203 104.535 28.8111 104.845 28.9374C105.156 29.0637 105.49 29.1226 105.825 29.1103C106.265 29.1515 106.707 29.0498 107.085 28.8203C107.463 28.5909 107.756 28.246 107.922 27.8369L109.691 27.8369ZM103.392 25.1348H107.931C107.947 24.8352 107.902 24.5354 107.797 24.2541C107.692 23.9729 107.53 23.7164 107.321 23.5006C107.111 23.2849 106.86 23.1145 106.582 23.0003C106.303 22.8861 106.004 22.8305 105.704 22.8369C105.4 22.8351 105.099 22.8933 104.819 23.008C104.538 23.1227 104.282 23.2918 104.067 23.5054C103.853 23.7191 103.682 23.973 103.566 24.2527C103.45 24.5323 103.391 24.8321 103.392 25.1348V25.1348Z" fill="white"/>
<path d="M35.5272 11.7163C35.5272 9.78124 36.5594 8.58593 38.2223 8.58593C38.8216 8.55633 39.4102 8.75254 39.8712 9.13561C40.3321 9.51869 40.6318 10.0606 40.7107 10.6538H39.7852C39.7076 10.3023 39.5085 9.98912 39.2228 9.76911C38.9371 9.54909 38.583 9.43621 38.2223 9.45019C37.148 9.45019 36.4762 10.3227 36.4762 11.7163C36.4762 13.1059 37.148 13.978 38.2262 13.978C38.5737 14.004 38.9194 13.9084 39.204 13.7077C39.4885 13.507 39.694 13.2138 39.7852 12.8784H40.7107C40.6204 13.4575 40.3145 13.9813 39.854 14.3453C39.3934 14.7094 38.8122 14.8868 38.2262 14.8423C36.5634 14.8423 35.5272 13.6474 35.5272 11.7163Z" fill="white"/>
<path d="M41.7272 12.4443C41.6988 12.1484 41.7328 11.8498 41.8269 11.5677C41.921 11.2857 42.0732 11.0263 42.2737 10.8063C42.4742 10.5864 42.7186 10.4106 42.9912 10.2903C43.2638 10.17 43.5586 10.1079 43.8567 10.1079C44.1548 10.1079 44.4496 10.17 44.7223 10.2903C44.9949 10.4106 45.2393 10.5864 45.4398 10.8063C45.6403 11.0263 45.7925 11.2857 45.8866 11.5677C45.9807 11.8498 46.0146 12.1484 45.9862 12.4443C46.0152 12.7405 45.9816 13.0395 45.8878 13.322C45.7939 13.6045 45.6418 13.8644 45.4413 14.0848C45.2407 14.3052 44.9961 14.4813 44.7232 14.6019C44.4503 14.7224 44.1552 14.7847 43.8567 14.7847C43.5583 14.7847 43.2631 14.7224 42.9902 14.6019C42.7173 14.4813 42.4728 14.3052 42.2722 14.0848C42.0717 13.8644 41.9196 13.6045 41.8257 13.322C41.7319 13.0395 41.6983 12.7405 41.7272 12.4443ZM45.0696 12.4443C45.0696 11.4682 44.6299 10.8974 43.8582 10.8974C43.0836 10.8974 42.6478 11.4682 42.6478 12.4443C42.6478 13.4282 43.0836 13.9946 43.8582 13.9946C44.6299 13.9946 45.0696 13.4243 45.0696 12.4443H45.0696Z" fill="white"/>
<path d="M47.1819 10.1949H48.0398V10.9102H48.1064C48.2193 10.6533 48.4099 10.4379 48.6514 10.2941C48.893 10.1503 49.1735 10.0852 49.4539 10.1079C49.6736 10.0915 49.8942 10.1245 50.0994 10.2046C50.3046 10.2847 50.489 10.4098 50.6391 10.5707C50.7892 10.7315 50.9011 10.924 50.9665 11.1338C51.0319 11.3436 51.0491 11.5654 51.0168 11.7827V14.6977H50.1257V12.0059C50.1257 11.2823 49.8103 10.9224 49.1513 10.9224C49.0021 10.9155 48.8532 10.9408 48.7147 10.9966C48.5763 11.0525 48.4516 11.1375 48.3492 11.2459C48.2468 11.3543 48.1691 11.4834 48.1214 11.6246C48.0737 11.7657 48.0573 11.9154 48.0731 12.0635V14.6978H47.1819V10.1949Z" fill="white"/>
<path d="M54.0459 10.1079C55.0614 10.1079 55.7254 10.5791 55.8125 11.373H54.9576C54.8754 11.0425 54.5512 10.8315 54.0459 10.8315C53.5484 10.8315 53.1704 11.0669 53.1704 11.4185C53.1704 11.6875 53.3986 11.8569 53.8883 11.9688L54.6384 12.1421C55.4972 12.3408 55.8997 12.709 55.8997 13.3706C55.8997 14.2183 55.1075 14.7847 54.0292 14.7847C52.9549 14.7847 52.2547 14.3008 52.1754 13.5029H53.0676C53.1445 13.6928 53.2831 13.8515 53.4612 13.9534C53.6393 14.0553 53.8466 14.0946 54.0498 14.0649C54.6051 14.0649 54.9998 13.8169 54.9998 13.457C54.9998 13.1885 54.7882 13.0146 54.3358 12.9072L53.5484 12.7251C52.6896 12.5224 52.292 12.1382 52.292 11.4683C52.292 10.6699 53.0255 10.1079 54.0459 10.1079Z" fill="white"/>
<path d="M57.0249 9.44189L58.0659 8.01953H59.1108L57.9454 9.44189H57.0249ZM57.117 10.1948H58.0042V14.6978H57.117V10.1948Z" fill="white"/>
<path d="M59.3919 15.1484H60.3036C60.379 15.4751 60.756 15.686 61.3573 15.686C62.0996 15.686 62.5393 15.3344 62.5393 14.7392V13.875H62.4727C62.333 14.1169 62.1288 14.3156 61.8829 14.4491C61.637 14.5825 61.3588 14.6456 61.0792 14.6313C59.9266 14.6313 59.2136 13.7426 59.2136 12.3945C59.2136 11.0215 59.9344 10.1201 61.088 10.1201C61.3746 10.1101 61.6585 10.1789 61.9086 10.3189C62.1587 10.459 62.3653 10.6648 62.506 10.914H62.5765V10.1948H63.4305V14.7348C63.4305 15.7646 62.6216 16.4179 61.3446 16.4179C60.2164 16.418 59.4868 15.9135 59.3919 15.1484ZM62.556 12.3901C62.556 11.4931 62.0908 10.9184 61.3319 10.9184C60.5651 10.9184 60.1342 11.4931 60.1342 12.3901C60.1342 13.2876 60.5651 13.8623 61.3319 13.8623C62.0957 13.8623 62.556 13.292 62.556 12.3901Z" fill="white"/>
<path d="M68.6576 14.6978H67.7987V13.9824H67.7282C67.6141 14.242 67.4209 14.4592 67.176 14.6032C66.9312 14.7472 66.6471 14.8107 66.3641 14.7847C66.1456 14.8001 65.9265 14.7666 65.7228 14.6866C65.5191 14.6066 65.3359 14.4821 65.1867 14.3223C65.0375 14.1625 64.9261 13.9714 64.8606 13.763C64.7952 13.5546 64.7773 13.3343 64.8084 13.1182V10.1948H65.7011V12.8867C65.7011 13.6143 65.9949 13.9619 66.65 13.9619C66.8019 13.9763 66.9551 13.9567 67.0985 13.9045C67.2418 13.8523 67.3716 13.7689 67.4785 13.6603C67.5854 13.5517 67.6666 13.4207 67.7163 13.2768C67.7659 13.1329 67.7827 12.9798 67.7654 12.8286V10.1948H68.6576V14.6978Z" fill="white"/>
<path d="M73.8959 13.482C73.7749 13.8936 73.5125 14.2495 73.1548 14.4877C72.7971 14.7258 72.3669 14.831 71.9393 14.7847C71.6418 14.7926 71.3461 14.7358 71.0729 14.6182C70.7996 14.5007 70.5553 14.3253 70.3568 14.1041C70.1583 13.883 70.0105 13.6214 69.9236 13.3376C69.8366 13.0538 69.8127 12.7545 69.8534 12.4605C69.8137 12.1656 69.8381 11.8657 69.9249 11.581C70.0116 11.2964 70.1586 11.0336 70.3561 10.8105C70.5535 10.5874 70.7967 10.4093 71.0691 10.2881C71.3416 10.1669 71.637 10.1054 71.9354 10.108C73.1918 10.108 73.9498 10.964 73.9498 12.378V12.6881H70.7612V12.7379C70.7472 12.9031 70.768 13.0695 70.8223 13.2262C70.8766 13.383 70.9631 13.5267 71.0763 13.6481C71.1895 13.7696 71.327 13.8661 71.4798 13.9315C71.6326 13.9969 71.7975 14.0297 71.9637 14.0279C72.1769 14.0534 72.3929 14.0151 72.5842 13.9179C72.7755 13.8207 72.9335 13.669 73.038 13.482L73.8959 13.482ZM70.7612 12.0308H73.0419C73.0532 11.8797 73.0326 11.7279 72.9815 11.5852C72.9304 11.4425 72.8499 11.312 72.7452 11.2021C72.6406 11.0923 72.514 11.0055 72.3737 10.9473C72.2333 10.8891 72.0824 10.8609 71.9304 10.8643C71.7763 10.8624 71.6233 10.8913 71.4806 10.9492C71.3378 11.0072 71.2081 11.093 71.0991 11.2017C70.9902 11.3104 70.9041 11.4398 70.8461 11.5822C70.788 11.7246 70.7592 11.8771 70.7612 12.0308Z" fill="white"/>
<path d="M75.1876 8.43701H76.0788V14.6978H75.1876V8.43701Z" fill="white"/>
<path d="M77.3176 12.4443C77.2892 12.1484 77.3231 11.8498 77.4172 11.5677C77.5113 11.2857 77.6635 11.0263 77.864 10.8063C78.0645 10.5864 78.3089 10.4106 78.5815 10.2903C78.8541 10.17 79.149 10.1079 79.4471 10.1079C79.7452 10.1079 80.04 10.17 80.3126 10.2903C80.5852 10.4106 80.8296 10.5864 81.0301 10.8063C81.2306 11.0263 81.3828 11.2857 81.4769 11.5677C81.571 11.8498 81.6049 12.1484 81.5766 12.4443C81.6055 12.7405 81.5719 13.0395 81.4781 13.322C81.3842 13.6045 81.2321 13.8644 81.0316 14.0848C80.831 14.3052 80.5865 14.4813 80.3136 14.6019C80.0407 14.7224 79.7455 14.7847 79.4471 14.7847C79.1486 14.7847 78.8535 14.7224 78.5806 14.6019C78.3077 14.4813 78.0631 14.3052 77.8625 14.0848C77.662 13.8644 77.5099 13.6045 77.416 13.322C77.3222 13.0395 77.2886 12.7405 77.3176 12.4443ZM80.6599 12.4443C80.6599 11.4682 80.2202 10.8974 79.4485 10.8974C78.6739 10.8974 78.2381 11.4682 78.2381 12.4443C78.2381 13.4282 78.6739 13.9946 79.4485 13.9946C80.2202 13.9946 80.6599 13.4243 80.6599 12.4443H80.6599Z" fill="white"/>
<path d="M89.0408 13.482C88.9197 13.8936 88.6574 14.2495 88.2997 14.4877C87.942 14.7258 87.5118 14.831 87.0842 14.7847C86.7867 14.7926 86.491 14.7358 86.2178 14.6182C85.9445 14.5007 85.7002 14.3253 85.5017 14.1041C85.3032 13.883 85.1554 13.6214 85.0685 13.3376C84.9815 13.0538 84.9576 12.7545 84.9983 12.4605C84.9586 12.1656 84.983 11.8657 85.0698 11.581C85.1565 11.2964 85.3035 11.0336 85.501 10.8105C85.6984 10.5874 85.9416 10.4093 86.214 10.2881C86.4865 10.1669 86.7819 10.1054 87.0803 10.108C88.3367 10.108 89.0947 10.964 89.0947 12.378V12.6881H85.9061V12.7379C85.8921 12.9031 85.913 13.0695 85.9672 13.2262C86.0215 13.383 86.108 13.5267 86.2213 13.6481C86.3345 13.7696 86.4719 13.8661 86.6247 13.9315C86.7776 13.9969 86.9424 14.0297 87.1087 14.0279C87.3218 14.0534 87.5378 14.0151 87.7291 13.9179C87.9204 13.8207 88.0784 13.669 88.183 13.482L89.0408 13.482ZM85.9061 12.0308H88.1869C88.1982 11.8797 88.1776 11.7279 88.1265 11.5852C88.0754 11.4425 87.9949 11.312 87.8902 11.2021C87.7855 11.0923 87.659 11.0055 87.5186 10.9473C87.3783 10.8891 87.2273 10.8609 87.0754 10.8643C86.9213 10.8624 86.7683 10.8913 86.6255 10.9492C86.4828 11.0071 86.3531 11.093 86.2441 11.2017C86.1351 11.3104 86.049 11.4398 85.991 11.5822C85.933 11.7246 85.9041 11.8771 85.9061 12.0308H85.9061Z" fill="white"/>
<path d="M90.2914 10.1949H91.1493V10.9102H91.2159C91.3288 10.6533 91.5194 10.4379 91.7609 10.2941C92.0025 10.1503 92.283 10.0852 92.5634 10.1079C92.7831 10.0915 93.0037 10.1245 93.2089 10.2046C93.414 10.2847 93.5985 10.4098 93.7486 10.5707C93.8987 10.7315 94.0106 10.924 94.076 11.1338C94.1414 11.3436 94.1586 11.5654 94.1263 11.7827V14.6977H93.2352V12.0059C93.2352 11.2823 92.9198 10.9224 92.2608 10.9224C92.1116 10.9155 91.9627 10.9408 91.8242 10.9966C91.6858 11.0525 91.5611 11.1375 91.4587 11.2459C91.3563 11.3543 91.2786 11.4834 91.2309 11.6246C91.1832 11.7657 91.1667 11.9154 91.1825 12.0635V14.6978H90.2914V10.1949Z" fill="white"/>
<path d="M101.773 13.482C101.652 13.8936 101.389 14.2495 101.032 14.4877C100.674 14.7258 100.244 14.831 99.8161 14.7847C99.5186 14.7926 99.223 14.7358 98.9497 14.6182C98.6764 14.5007 98.4321 14.3253 98.2336 14.1041C98.0352 13.883 97.8873 13.6214 97.8004 13.3376C97.7135 13.0538 97.6895 12.7545 97.7302 12.4605C97.6906 12.1656 97.715 11.8657 97.8017 11.581C97.8884 11.2964 98.0355 11.0336 98.2329 10.8105C98.4303 10.5874 98.6735 10.4093 98.946 10.2881C99.2184 10.1669 99.5139 10.1054 99.8122 10.108C101.069 10.108 101.827 10.964 101.827 12.378V12.6881H98.638V12.7379C98.6241 12.9031 98.6449 13.0695 98.6992 13.2262C98.7534 13.383 98.84 13.5267 98.9532 13.6481C99.0664 13.7696 99.2038 13.8661 99.3567 13.9315C99.5095 13.9969 99.6743 14.0297 99.8406 14.0279C100.054 14.0534 100.27 14.0151 100.461 13.9179C100.652 13.8207 100.81 13.669 100.915 13.482L101.773 13.482ZM98.638 12.0308H100.919C100.93 11.8797 100.909 11.7279 100.858 11.5852C100.807 11.4425 100.727 11.312 100.622 11.2021C100.517 11.0923 100.391 11.0055 100.251 10.9473C100.11 10.8891 99.9592 10.8609 99.8073 10.8643C99.6531 10.8624 99.5002 10.8913 99.3574 10.9492C99.2146 11.0072 99.085 11.093 98.976 11.2017C98.867 11.3105 98.781 11.4398 98.7229 11.5822C98.6649 11.7246 98.636 11.8771 98.638 12.0308H98.638Z" fill="white"/>
<path d="M103.064 8.43701H103.956V14.6978H103.064V8.43701Z" fill="white"/>
</g>
<defs>
<clipPath id="clip0">
<rect width="120" height="40" fill="white"/>
</clipPath>
</defs>
</svg>
