<svg width="48" height="48" viewBox="0 0 48 48" fill="none" xmlns="http://www.w3.org/2000/svg">
<path d="M38.7188 27.0938C38.7188 25.3546 37.4498 23.9066 35.7891 23.6268V17.2262C36.9401 16.8805 37.7812 15.8108 37.7812 14.5488V5.35181C37.7812 2.40088 35.3804 0 32.4294 0H15.4768C12.5259 0 10.125 2.40088 10.125 5.35181V6C10.125 6.38855 10.4399 6.70312 10.8281 6.70312C11.2163 6.70312 11.5312 6.38855 11.5312 6V5.35181C11.5312 3.17615 13.3011 1.40625 15.4768 1.40625H32.4294C34.6051 1.40625 36.375 3.17615 36.375 5.35181V14.5488C36.375 15.3146 35.7521 15.9375 34.9863 15.9375H12.9199C12.1542 15.9375 11.5312 15.3146 11.5312 14.5488V9C11.5312 8.61145 11.2163 8.29688 10.8281 8.29688C10.4399 8.29688 10.125 8.61145 10.125 9V14.5488C10.125 15.8368 11.0006 16.9237 12.1875 17.2463V23.6158C10.4927 23.866 9.1875 25.3304 9.1875 27.0938C9.1875 28.8571 10.4927 30.3215 12.1875 30.5717V45.8906C12.1875 47.0537 13.1338 48 14.2969 48C15.46 48 16.4062 47.0537 16.4062 45.8906V41.4844H31.5703V45.8906C31.5703 47.0537 32.5166 48 33.6797 48C34.8428 48 35.7891 47.0537 35.7891 45.8906V30.5607C37.4498 30.2809 38.7188 28.8329 38.7188 27.0938ZM34.3828 17.3438V23.5781H32.9766V17.3438H34.3828ZM15 17.3438V23.5781H13.5938V17.3438H15ZM15 45.8906C15 46.2784 14.6847 46.5938 14.2969 46.5938C13.9091 46.5938 13.5938 46.2784 13.5938 45.8906V30.6094H15V32.9689C15 33.3571 15.3149 33.672 15.7031 33.672C16.0913 33.672 16.4062 33.3571 16.4062 32.9689V30.6094H31.5703V37.2656H16.4062V36C16.4062 35.6115 16.0913 35.2969 15.7031 35.2969C15.3149 35.2969 15 35.6115 15 36V45.8906ZM16.4062 40.0781V38.6719H31.5703V40.0781H16.4062ZM34.3828 45.8906C34.3828 46.2784 34.0675 46.5938 33.6797 46.5938C33.2919 46.5938 32.9766 46.2784 32.9766 45.8906V30.6094H34.3828V45.8906ZM35.2031 29.2031H12.7031C11.54 29.2031 10.5938 28.2568 10.5938 27.0938C10.5938 25.9307 11.54 24.9844 12.7031 24.9844H26.9531C27.3417 24.9844 27.6562 24.6698 27.6562 24.2812C27.6562 23.8927 27.3417 23.5781 26.9531 23.5781H16.4062V17.3438H31.5703V23.5781H29.9374C29.5492 23.5781 29.2343 23.8927 29.2343 24.2812C29.2343 24.6698 29.5492 24.9844 29.9374 24.9844H35.2031C36.3662 24.9844 37.3125 25.9307 37.3125 27.0938C37.3125 28.2568 36.3662 29.2031 35.2031 29.2031Z" fill="url(#paint0_linear)"/>
<defs>
<linearGradient id="paint0_linear" x1="10.9186" y1="-4.96552" x2="56.7764" y2="32.1354" gradientUnits="userSpaceOnUse">
<stop offset="0.0102665" stop-color="#ED5026"/>
<stop offset="0.488658" stop-color="#F02748"/>
<stop offset="1" stop-color="#F71694"/>
</linearGradient>
</defs>
</svg>
