<svg width="48" height="48" viewBox="0 0 48 48" fill="none" xmlns="http://www.w3.org/2000/svg">
<g clip-path="url(#clip0)">
<path d="M35.0623 14.6204C27.9286 14.6204 22.1248 20.4241 22.1248 27.5579C22.1248 29.3085 22.4827 31.0332 23.1597 32.625H13.5157V27.7493C13.5157 27.2315 13.0959 26.8118 12.5782 26.8118C12.0604 26.8118 11.6407 27.2315 11.6407 27.7493V33.5625C11.6407 34.0803 12.0604 34.5 12.5782 34.5H24.1459C24.4113 34.9178 24.7008 35.3216 25.0147 35.7082C25.029 35.7302 25.0444 35.7517 25.0608 35.7727L33.1413 46.125H28.747C28.2292 46.125 27.8095 46.5448 27.8095 47.0625C27.8095 47.5803 28.2292 48 28.747 48H41.4075C41.9253 48 42.345 47.5803 42.345 47.0625C42.345 46.5448 41.9253 46.125 41.4075 46.125H36.9828L45.1084 35.7101C45.1117 35.7059 45.1149 35.7015 45.1182 35.6972C46.9766 33.4036 47.9998 30.5145 47.9998 27.5579C47.9998 20.424 42.196 14.6204 35.0623 14.6204ZM43.6417 34.5411C43.6301 34.5554 43.619 34.57 43.6083 34.5847L35.0622 45.5387L26.6042 34.7029C26.5819 34.6668 26.557 34.632 26.5296 34.5988C24.8983 32.6243 23.9999 30.1238 23.9999 27.5579C23.9999 21.458 28.9626 16.4954 35.0624 16.4954C41.1622 16.4954 46.1249 21.458 46.1249 27.5579C46.1248 30.0964 45.243 32.5765 43.6417 34.5411Z" fill="url(#paint0_linear)"/>
<path d="M42.3797 25.3888C42.2211 24.8957 41.6929 24.6248 41.2001 24.7834C40.7072 24.9419 40.4363 25.4701 40.5948 25.9631C41.2666 28.0507 40.7215 30.3101 39.1722 31.8594C36.9059 34.1257 33.2184 34.1257 30.9521 31.8594C29.8543 30.7616 29.2496 29.3019 29.2496 27.7494C29.2496 26.1969 29.8542 24.7372 30.9521 23.6393C32.4334 22.1579 34.609 21.5876 36.6296 22.151C37.1281 22.2901 37.6454 21.9986 37.7844 21.4998C37.9234 21.0011 37.6319 20.4841 37.1332 20.345C34.4618 19.6001 31.5853 20.3545 29.6263 22.3136C28.1743 23.7656 27.3746 25.6961 27.3746 27.7495C27.3746 29.8029 28.1743 31.7334 29.6263 33.1854C31.1249 34.6841 33.0935 35.4334 35.0622 35.4334C37.0308 35.4334 38.9994 34.6841 40.4981 33.1854C42.5469 31.1365 43.2679 28.149 42.3797 25.3888Z" fill="url(#paint1_linear)"/>
<path d="M40.5066 22.3218L40.4982 22.3134C40.1321 21.9473 39.5385 21.9473 39.1723 22.3134C38.8062 22.6795 38.8062 23.2731 39.1723 23.6393L39.1808 23.6477C39.3639 23.8308 39.6038 23.9223 39.8437 23.9223C40.0836 23.9223 40.3236 23.8308 40.5066 23.6477C40.8727 23.2816 40.8727 22.688 40.5066 22.3218Z" fill="url(#paint2_linear)"/>
<path d="M21.9687 39.375H0.9375C0.419719 39.375 0 39.7947 0 40.3125C0 40.8303 0.419719 41.25 0.9375 41.25H21.0312V47.0625C21.0312 47.5803 21.4509 48 21.9687 48C22.4865 48 22.9062 47.5803 22.9062 47.0625V40.3125C22.9062 39.7947 22.4865 39.375 21.9687 39.375Z" fill="url(#paint3_linear)"/>
<path d="M17.1076 0C16.5898 0 16.1701 0.419719 16.1701 0.9375V7.68806H0.9375C0.419719 7.68806 0 8.10778 0 8.62556C0 9.14334 0.419719 9.56306 0.9375 9.56306H17.1076C17.6254 9.56306 18.0451 9.14334 18.0451 8.62556V0.9375C18.0451 0.419719 17.6254 0 17.1076 0Z" fill="url(#paint4_linear)"/>
<path d="M8.04862 14.438H0.9375C0.419719 14.438 0 14.8577 0 15.3755C0 15.8933 0.419719 16.313 0.9375 16.313H7.11112V32.6249H0.9375C0.419719 32.6249 0 33.0446 0 33.5624C0 34.0802 0.419719 34.4999 0.9375 34.4999H8.04862C8.56641 34.4999 8.98612 34.0802 8.98612 33.5624V15.3755C8.98612 14.8577 8.56641 14.438 8.04862 14.438Z" fill="url(#paint5_linear)"/>
<path d="M13.2414 23.8059C13.0671 23.6316 12.8252 23.5312 12.5786 23.5312C12.3311 23.5312 12.0902 23.6316 11.9158 23.8059C11.7405 23.9803 11.6411 24.2222 11.6411 24.4688C11.6411 24.7163 11.7405 24.9572 11.9158 25.1316C12.0902 25.3069 12.3311 25.4062 12.5786 25.4062C12.8252 25.4062 13.0661 25.3069 13.2414 25.1316C13.4158 24.9572 13.5161 24.7153 13.5161 24.4688C13.5161 24.2222 13.4158 23.9803 13.2414 23.8059Z" fill="url(#paint6_linear)"/>
<path d="M24 14.438H12.5782C12.0604 14.438 11.6407 14.8577 11.6407 15.3755V20.5781C11.6407 21.0958 12.0604 21.5156 12.5782 21.5156C13.0959 21.5156 13.5157 21.0958 13.5157 20.5781V16.313H24C24.5178 16.313 24.9375 15.8933 24.9375 15.3755C24.9375 14.8577 24.5178 14.438 24 14.438Z" fill="url(#paint7_linear)"/>
<path d="M37.5002 0C36.9824 0 36.5627 0.419719 36.5627 0.9375V7.68703L22.5748 7.68806V0.9375C22.5748 0.419719 22.1551 0 21.6373 0C21.1195 0 20.6998 0.419719 20.6998 0.9375V8.62556C20.6998 8.87419 20.7986 9.11269 20.9744 9.28847C21.1501 9.46425 21.3887 9.56306 21.6374 9.56306L37.5002 9.56194C38.018 9.56194 38.4377 9.14213 38.4377 8.62444V0.9375C38.4377 0.419719 38.018 0 37.5002 0Z" fill="url(#paint8_linear)"/>
<path d="M47.0625 7.68806H42.9375V0.9375C42.9375 0.419719 42.5178 0 42 0C41.4822 0 41.0625 0.419719 41.0625 0.9375V8.62556C41.0625 9.14334 41.4822 9.56306 42 9.56306H47.0625C47.5803 9.56306 48 9.14334 48 8.62556C48 8.10778 47.5803 7.68806 47.0625 7.68806Z" fill="url(#paint9_linear)"/>
<path d="M47.0628 14.438H44.1025C43.5847 14.438 43.165 14.8577 43.165 15.3755C43.165 15.8933 43.5847 16.313 44.1025 16.313H47.0628C47.5806 16.313 48.0003 15.8933 48.0003 15.3755C48.0003 14.8577 47.5806 14.438 47.0628 14.438Z" fill="url(#paint10_linear)"/>
</g>
<defs>
<linearGradient id="paint0_linear" x1="13.7721" y1="11.1673" x2="44.3829" y2="55.0141" gradientUnits="userSpaceOnUse">
<stop offset="0.0102665" stop-color="#ED5026"/>
<stop offset="0.488658" stop-color="#F02748"/>
<stop offset="1" stop-color="#F71694"/>
</linearGradient>
<linearGradient id="paint1_linear" x1="28.2761" y1="18.4727" x2="42.7436" y2="37.508" gradientUnits="userSpaceOnUse">
<stop offset="0.0102665" stop-color="#ED5026"/>
<stop offset="0.488658" stop-color="#F02748"/>
<stop offset="1" stop-color="#F71694"/>
</linearGradient>
<linearGradient id="paint2_linear" x1="39.0081" y1="21.844" x2="40.7812" y2="24.1756" gradientUnits="userSpaceOnUse">
<stop offset="0.0102665" stop-color="#ED5026"/>
<stop offset="0.488658" stop-color="#F02748"/>
<stop offset="1" stop-color="#F71694"/>
</linearGradient>
<linearGradient id="paint3_linear" x1="1.34278" y1="38.4828" x2="5.80232" y2="54.0574" gradientUnits="userSpaceOnUse">
<stop offset="0.0102665" stop-color="#ED5026"/>
<stop offset="0.488658" stop-color="#F02748"/>
<stop offset="1" stop-color="#F71694"/>
</linearGradient>
<linearGradient id="paint4_linear" x1="1.05782" y1="-0.989282" x2="7.53556" y2="15.0845" gradientUnits="userSpaceOnUse">
<stop offset="0.0102665" stop-color="#ED5026"/>
<stop offset="0.488658" stop-color="#F02748"/>
<stop offset="1" stop-color="#F71694"/>
</linearGradient>
<linearGradient id="paint5_linear" x1="0.526773" y1="12.3626" x2="17.6677" y2="22.459" gradientUnits="userSpaceOnUse">
<stop offset="0.0102665" stop-color="#ED5026"/>
<stop offset="0.488658" stop-color="#F02748"/>
<stop offset="1" stop-color="#F71694"/>
</linearGradient>
<linearGradient id="paint6_linear" x1="11.751" y1="23.3373" x2="13.5161" y2="25.6584" gradientUnits="userSpaceOnUse">
<stop offset="0.0102665" stop-color="#ED5026"/>
<stop offset="0.488658" stop-color="#F02748"/>
<stop offset="1" stop-color="#F71694"/>
</linearGradient>
<linearGradient id="paint7_linear" x1="12.4201" y1="13.7058" x2="17.2294" y2="25.5874" gradientUnits="userSpaceOnUse">
<stop offset="0.0102665" stop-color="#ED5026"/>
<stop offset="0.488658" stop-color="#F02748"/>
<stop offset="1" stop-color="#F71694"/>
</linearGradient>
<linearGradient id="paint8_linear" x1="21.7396" y1="-0.989282" x2="28.2975" y2="15.0064" gradientUnits="userSpaceOnUse">
<stop offset="0.0102665" stop-color="#ED5026"/>
<stop offset="0.488658" stop-color="#F02748"/>
<stop offset="1" stop-color="#F71694"/>
</linearGradient>
<linearGradient id="paint9_linear" x1="41.4692" y1="-0.989282" x2="50.801" y2="7.91303" gradientUnits="userSpaceOnUse">
<stop offset="0.0102665" stop-color="#ED5026"/>
<stop offset="0.488658" stop-color="#F02748"/>
<stop offset="1" stop-color="#F71694"/>
</linearGradient>
<linearGradient id="paint10_linear" x1="43.4484" y1="14.244" x2="44.4423" y2="17.6143" gradientUnits="userSpaceOnUse">
<stop offset="0.0102665" stop-color="#ED5026"/>
<stop offset="0.488658" stop-color="#F02748"/>
<stop offset="1" stop-color="#F71694"/>
</linearGradient>
<clipPath id="clip0">
<rect width="48" height="48" fill="white"/>
</clipPath>
</defs>
</svg>
