<svg width="21" height="24" viewBox="0 0 21 24" fill="none" xmlns="http://www.w3.org/2000/svg">
<g clip-path="url(#clip0)">
<path d="M10.5046 6.60928C7.5234 6.60928 5.11871 9.01396 5.11871 11.9952C5.11871 14.9765 7.5234 17.3812 10.5046 17.3812C13.4859 17.3812 15.8906 14.9765 15.8906 11.9952C15.8906 9.01396 13.4859 6.60928 10.5046 6.60928ZM10.5046 15.4968C8.57809 15.4968 7.00309 13.9265 7.00309 11.9952C7.00309 10.064 8.5734 8.49365 10.5046 8.49365C12.4359 8.49365 14.0062 10.064 14.0062 11.9952C14.0062 13.9265 12.4312 15.4968 10.5046 15.4968ZM17.3671 6.38896C17.3671 7.0874 16.8046 7.64522 16.1109 7.64522C15.4125 7.64522 14.8546 7.08271 14.8546 6.38896C14.8546 5.69521 15.4171 5.13271 16.1109 5.13271C16.8046 5.13271 17.3671 5.69521 17.3671 6.38896ZM20.9343 7.66397C20.8546 5.98115 20.4703 4.49053 19.2375 3.2624C18.0093 2.03428 16.5187 1.6499 14.8359 1.56553C13.1015 1.46709 7.90309 1.46709 6.16871 1.56553C4.49059 1.64521 2.99996 2.02959 1.76715 3.25771C0.534335 4.48584 0.154648 5.97646 0.0702728 7.65928C-0.0281647 9.39365 -0.0281647 14.5921 0.0702728 16.3265C0.14996 18.0093 0.534335 19.4999 1.76715 20.728C2.99996 21.9562 4.4859 22.3405 6.16871 22.4249C7.90309 22.5233 13.1015 22.5233 14.8359 22.4249C16.5187 22.3452 18.0093 21.9608 19.2375 20.728C20.4656 19.4999 20.85 18.0093 20.9343 16.3265C21.0328 14.5921 21.0328 9.39834 20.9343 7.66397ZM18.6937 18.1874C18.3281 19.1062 17.6203 19.814 16.6968 20.1843C15.314 20.7327 12.0328 20.6062 10.5046 20.6062C8.97652 20.6062 5.69059 20.728 4.31246 20.1843C3.39371 19.8187 2.6859 19.1108 2.31559 18.1874C1.76715 16.8046 1.89371 13.5233 1.89371 11.9952C1.89371 10.4671 1.77184 7.18115 2.31559 5.80303C2.68121 4.88428 3.38902 4.17646 4.31246 3.80615C5.69527 3.25771 8.97652 3.38428 10.5046 3.38428C12.0328 3.38428 15.3187 3.2624 16.6968 3.80615C17.6156 4.17178 18.3234 4.87959 18.6937 5.80303C19.2421 7.18584 19.1156 10.4671 19.1156 11.9952C19.1156 13.5233 19.2421 16.8093 18.6937 18.1874Z" fill="white"/>
</g>
<defs>
<clipPath id="clip0">
<rect width="21" height="24" fill="white"/>
</clipPath>
</defs>
</svg>
