<svg width="48" height="48" viewBox="0 0 48 48" fill="none" xmlns="http://www.w3.org/2000/svg">
<path d="M30.7726 7.16765H30.7317C30.1077 7.12959 29.4706 7.09738 28.8202 7.071C28.735 7.06763 28.6513 7.04752 28.5739 7.01182C28.4965 6.97611 28.4269 6.92551 28.369 6.8629C28.3112 6.80028 28.2662 6.72689 28.2367 6.6469C28.2072 6.56692 28.1938 6.48191 28.1972 6.39673C28.2005 6.31154 28.2206 6.22786 28.2563 6.15045C28.292 6.07304 28.3427 6.00342 28.4053 5.94557C28.4679 5.88771 28.5413 5.84276 28.6213 5.81327C28.7012 5.78378 28.7862 5.77033 28.8714 5.7737C29.5313 5.79965 30.178 5.83229 30.8115 5.87165C30.9836 5.87681 31.1465 5.9501 31.2645 6.07539C31.3825 6.20068 31.4459 6.36772 31.4407 6.53975C31.4356 6.71179 31.3623 6.87472 31.237 6.99272C31.1117 7.11072 30.9446 7.17411 30.7726 7.16894V7.16765Z" fill="url(#paint0_linear)"/>
<path d="M24.3081 15.6843H23.9999C23.481 15.6843 22.955 15.6778 22.4432 15.6719C20.8281 15.6512 19.2929 15.5986 17.8378 15.5143C13.9595 15.2931 1.29724 14.2897 1.29724 10.6767C1.29724 7.06373 13.9595 6.05379 17.8378 5.8326C17.923 5.82774 18.0083 5.83971 18.0888 5.86782C18.1694 5.89593 18.2436 5.93964 18.3073 5.99644C18.3709 6.05324 18.4228 6.12202 18.4599 6.19886C18.497 6.2757 18.5185 6.35909 18.5234 6.44427C18.5283 6.52945 18.5163 6.61476 18.4882 6.69531C18.4601 6.77587 18.4164 6.8501 18.3596 6.91377C18.3028 6.97743 18.234 7.02929 18.1571 7.06637C18.0803 7.10345 17.9969 7.12504 17.9117 7.12989C5.31886 7.8486 2.59454 10.1461 2.59454 10.6767C2.59454 11.6069 7.08838 13.6015 17.9137 14.219C19.3478 14.3027 20.865 14.3545 22.4257 14.374C22.9654 14.3805 23.483 14.387 23.9999 14.387H24.3048C25.9777 14.3798 27.454 14.3442 28.8136 14.2774C29.47 14.2514 30.1076 14.219 30.7316 14.1807C32.3364 14.0769 33.8516 13.9407 35.2352 13.7753C42.6447 12.9016 45.4054 11.411 45.4054 10.6767C45.4054 9.94243 42.6447 8.45249 35.2358 7.57162C35.0657 7.55051 34.9108 7.46289 34.8051 7.32792C34.6994 7.19296 34.6514 7.02162 34.6716 6.85137C34.6918 6.68112 34.7787 6.5258 34.9131 6.41937C35.0475 6.31295 35.2186 6.26406 35.3889 6.28341C40.5502 6.89703 46.7027 8.158 46.7027 10.6767C46.7027 13.1954 40.5502 14.4551 35.3883 15.0635C33.9827 15.2315 32.4434 15.3697 30.8134 15.4754C30.1777 15.5143 29.5301 15.547 28.8706 15.5734C27.4981 15.6408 26.003 15.6771 24.3081 15.6843Z" fill="url(#paint1_linear)"/>
<path d="M22.4599 6.97238L22.4171 6.32373L22.4444 5.67508C22.9548 5.6686 23.4777 5.66211 24.0011 5.66211H24.306C24.478 5.66211 24.643 5.73045 24.7646 5.85209C24.8863 5.97374 24.9546 6.13873 24.9546 6.31076C24.9546 6.48279 24.8863 6.64778 24.7646 6.76942C24.643 6.89107 24.478 6.95941 24.306 6.95941H23.9998C23.4809 6.96006 22.9652 6.96655 22.4599 6.97238Z" fill="url(#paint2_linear)"/>
<path d="M23.9999 19.453C14.8741 19.453 1.29724 18.1181 1.29724 14.4396V10.6735C1.29724 10.5015 1.36558 10.3365 1.48723 10.2149C1.60887 10.0932 1.77386 10.0249 1.94589 10.0249C2.11792 10.0249 2.28291 10.0932 2.40455 10.2149C2.5262 10.3365 2.59454 10.5015 2.59454 10.6735V14.4396C2.59454 15.7369 9.94632 18.1557 23.9999 18.1557C38.0536 18.1557 45.4054 15.7362 45.4054 14.4396V10.6735C45.4054 10.5015 45.4737 10.3365 45.5953 10.2149C45.717 10.0932 45.882 10.0249 46.054 10.0249C46.226 10.0249 46.391 10.0932 46.5127 10.2149C46.6343 10.3365 46.7027 10.5015 46.7027 10.6735V14.4396C46.7027 18.1181 33.1258 19.453 23.9999 19.453Z" fill="url(#paint3_linear)"/>
<path d="M23.9999 38.6537C22.4668 38.6447 20.9512 38.3268 19.5437 37.719C19.398 37.6577 19.2797 37.5453 19.211 37.4029C19.1423 37.2606 19.128 37.098 19.1707 36.9458C19.9603 34.1639 20.4517 31.3059 20.6366 28.42C20.9655 21.8518 17.8955 19.18 17.8643 19.154C17.7319 19.0441 17.6486 18.8861 17.6328 18.7148C17.6169 18.5434 17.6697 18.3728 17.7797 18.2404C17.8896 18.108 18.0476 18.0247 18.2189 18.0089C18.3903 17.993 18.5609 18.0458 18.6933 18.1558C18.8405 18.2777 22.2959 21.2193 21.9326 28.4751C21.7635 31.2663 21.3083 34.0328 20.5744 36.7311C22.7801 37.575 25.2197 37.575 27.4254 36.7311C26.6909 34.0298 26.2355 31.2603 26.0665 28.466C25.7039 21.2193 29.1593 18.2777 29.3065 18.1558C29.4391 18.0462 29.6099 17.9938 29.7812 18.0101C29.9524 18.0264 30.1102 18.11 30.2198 18.2427C30.3294 18.3753 30.3818 18.5461 30.3655 18.7173C30.3492 18.8886 30.2655 19.0464 30.1329 19.156C30.1043 19.18 27.0343 21.8518 27.3625 28.4109C27.5472 31.2998 28.0388 34.1609 28.8291 36.9458C28.8718 37.098 28.8575 37.2606 28.7888 37.4029C28.7201 37.5453 28.6018 37.6577 28.4561 37.719C27.0486 38.3268 25.533 38.6447 23.9999 38.6537Z" fill="url(#paint4_linear)"/>
<path d="M23.9999 42.3392C18.4533 42.3392 14.2701 40.4763 14.2701 38.0062C14.2701 36.1803 16.5728 34.6378 20.2805 33.9813C20.3644 33.9665 20.4504 33.9684 20.5336 33.9868C20.6168 34.0052 20.6955 34.0398 20.7654 34.0887C20.8352 34.1375 20.8947 34.1996 20.9405 34.2715C20.9863 34.3433 21.0175 34.4235 21.0323 34.5074C21.0471 34.5913 21.0453 34.6773 21.0269 34.7605C21.0084 34.8437 20.9738 34.9224 20.925 34.9922C20.8761 35.062 20.814 35.1215 20.7422 35.1673C20.6703 35.2131 20.5902 35.2443 20.5062 35.2592C17.1132 35.8598 15.5674 37.1026 15.5674 38.0062C15.5674 39.4391 19.1739 41.0419 23.9999 41.0419C28.8258 41.0419 32.4323 39.4391 32.4323 38.0062C32.4323 37.1046 30.8866 35.8598 27.4935 35.2592C27.324 35.2292 27.1734 35.1332 27.0748 34.9922C26.9761 34.8512 26.9375 34.6768 26.9674 34.5074C26.9974 34.3379 27.0934 34.1873 27.2344 34.0887C27.3754 33.99 27.5498 33.9514 27.7192 33.9813C31.4269 34.6378 33.7296 36.1803 33.7296 38.0062C33.7296 40.4756 29.5465 42.3392 23.9999 42.3392Z" fill="url(#paint5_linear)"/>
<defs>
<linearGradient id="paint0_linear" x1="28.3868" y1="5.62878" x2="29.193" y2="8.09256" gradientUnits="userSpaceOnUse">
<stop offset="0.0102665" stop-color="#ED5026"/>
<stop offset="0.488658" stop-color="#F02748"/>
<stop offset="1" stop-color="#F71694"/>
</linearGradient>
<linearGradient id="paint1_linear" x1="3.95894" y1="4.81229" x2="7.05127" y2="23.5523" gradientUnits="userSpaceOnUse">
<stop offset="0.0102665" stop-color="#ED5026"/>
<stop offset="0.488658" stop-color="#F02748"/>
<stop offset="1" stop-color="#F71694"/>
</linearGradient>
<linearGradient id="paint2_linear" x1="22.5659" y1="5.52656" x2="23.4368" y2="7.74459" gradientUnits="userSpaceOnUse">
<stop offset="0.0102665" stop-color="#ED5026"/>
<stop offset="0.488658" stop-color="#F02748"/>
<stop offset="1" stop-color="#F71694"/>
</linearGradient>
<linearGradient id="paint3_linear" x1="3.95894" y1="9.04958" x2="6.79681" y2="27.0221" gradientUnits="userSpaceOnUse">
<stop offset="0.0102665" stop-color="#ED5026"/>
<stop offset="0.488658" stop-color="#F02748"/>
<stop offset="1" stop-color="#F71694"/>
</linearGradient>
<linearGradient id="paint4_linear" x1="18.3767" y1="15.8701" x2="38.1142" y2="31.883" gradientUnits="userSpaceOnUse">
<stop offset="0.0102665" stop-color="#ED5026"/>
<stop offset="0.488658" stop-color="#F02748"/>
<stop offset="1" stop-color="#F71694"/>
</linearGradient>
<linearGradient id="paint5_linear" x1="15.4109" y1="33.1058" x2="20.2405" y2="47.8754" gradientUnits="userSpaceOnUse">
<stop offset="0.0102665" stop-color="#ED5026"/>
<stop offset="0.488658" stop-color="#F02748"/>
<stop offset="1" stop-color="#F71694"/>
</linearGradient>
</defs>
</svg>
