<svg width="27" height="24" viewBox="0 0 27 24" fill="none" xmlns="http://www.w3.org/2000/svg">
<path d="M25.765 5.81639C25.4706 4.7078 24.6031 3.8347 23.5017 3.53841C21.5053 3 13.4999 3 13.4999 3C13.4999 3 5.49459 3 3.49813 3.53841C2.39671 3.83475 1.52924 4.7078 1.23482 5.81639C0.699883 7.82578 0.699883 12.0182 0.699883 12.0182C0.699883 12.0182 0.699883 16.2106 1.23482 18.22C1.52924 19.3286 2.39671 20.1653 3.49813 20.4616C5.49459 21 13.4999 21 13.4999 21C13.4999 21 21.5052 21 23.5017 20.4616C24.6031 20.1653 25.4706 19.3286 25.765 18.22C26.2999 16.2106 26.2999 12.0182 26.2999 12.0182C26.2999 12.0182 26.2999 7.82578 25.765 5.81639ZM10.8817 15.8246V8.2118L17.5726 12.0183L10.8817 15.8246Z" fill="white"/>
</svg>
