<svg width="48" height="48" viewBox="0 0 48 48" fill="none" xmlns="http://www.w3.org/2000/svg">
<g clip-path="url(#clip0)">
<path d="M45.182 36.2582V33.4402H41.1899V34.8494H43.7728V36.2582H29.2134V34.8494H39.7808V33.4402H31.092V22.2949L44.1423 7.58203C44.5931 7.07336 44.8418 6.41968 44.8418 5.74146C44.8418 4.85156 44.4115 4.00964 43.6908 3.48889C43.2147 3.14502 42.653 2.96338 42.0667 2.96338C41.2683 2.96338 40.5088 3.30688 39.9818 3.90527L36.9155 7.38831L37.9731 8.31921L41.0394 4.83618C41.2987 4.54138 41.6733 4.37256 42.0667 4.37256C42.3549 4.37256 42.6313 4.46191 42.8661 4.63147C43.2261 4.89148 43.4326 5.29614 43.4326 5.74146C43.4326 6.07471 43.3103 6.39624 43.0884 6.64709L35.7979 14.866L33.7789 13.0844L37.0422 9.37683L35.9846 8.44592L29.6935 15.5929H26.7711V13.8929C27.405 13.4608 27.9331 12.884 28.3085 12.2113H29.1665C30.5907 12.2113 31.7494 11.0526 31.7494 9.62805V7.74939C31.7494 3.47644 28.2729 0 24 0C19.7271 0 16.2506 3.47644 16.2506 7.74939V9.62805C16.2506 11.0526 17.4093 12.2113 18.8335 12.2113H19.6915C20.0669 12.884 20.595 13.4608 21.2289 13.8929V15.6995L18.6639 16.121L18.8928 17.5115L21.6317 17.061C22.2268 17.7363 23.0815 18.1293 24 18.1293C24.9452 18.1293 25.8245 17.714 26.421 17.0021H30.3303L32.8477 14.142L34.8629 15.9203L29.6829 21.7599V33.4402H27.8042V36.2582H20.1958V33.4402H18.3171V22.7318H16.8395L15.5457 26.2434L12.9847 25.207L14.985 19.7289C15.3625 18.6951 16.2715 17.9421 17.3573 17.7638L17.5023 17.7396L17.2738 16.3495L17.1288 16.3733C15.5416 16.634 14.213 17.7349 13.6615 19.2455L8.47778 33.4402H2.81799V36.2582H0V48H8.87659V46.5908H1.40918V37.6674H46.5908V46.5908H10.2858V48H48V36.2582H45.182ZM27.5226 8.53418L26.0413 6.57532H20.6796C21.1641 5.20862 22.4692 4.22717 24 4.22717C25.9424 4.22717 27.5226 5.80701 27.5226 7.74939V8.53418ZM30.3406 9.62805C30.3406 10.2755 29.814 10.8025 29.1665 10.8025H28.8322C28.8973 10.4835 28.9314 10.1536 28.9314 9.81592C28.9314 9.81592 28.9292 7.59265 28.9255 7.51465H29.1665C29.814 7.51465 30.3406 8.04126 30.3406 8.68872V9.62805ZM24 1.40918C27.0011 1.40918 29.5199 3.50537 30.174 6.31018C29.8641 6.17871 29.5236 6.10583 29.1665 6.10583H28.6487C27.9701 4.19238 26.1431 2.81799 24 2.81799C21.8569 2.81799 20.0299 4.19238 19.3513 6.10583H18.8335C18.4764 6.10583 18.1359 6.17871 17.826 6.31018C18.4801 3.50537 20.9989 1.40918 24 1.40918V1.40918ZM18.8335 10.8025C18.186 10.8025 17.6594 10.2755 17.6594 9.62805V8.68872C17.6594 8.04126 18.186 7.51465 18.8335 7.51465H19.0745C19.0708 7.59265 19.0686 9.81592 19.0686 9.81592C19.0686 10.1536 19.1027 10.4835 19.1678 10.8025H18.8335ZM20.4774 9.81592V7.9845H25.3403L27.4054 10.7161C27.007 12.2238 25.6315 13.3385 24 13.3385C22.0576 13.3385 20.4774 11.7583 20.4774 9.81592V9.81592ZM24 16.7201C23.465 16.7201 22.9691 16.4799 22.6381 16.0701V14.5547C23.0709 14.6792 23.5276 14.7477 24 14.7477C24.4724 14.7477 24.9291 14.6792 25.3619 14.5547V16.0701C25.0309 16.4799 24.535 16.7201 24 16.7201V16.7201ZM16.908 26.6217V33.4402H14.3958L16.908 26.6217ZM12.501 26.5312L15.0582 27.5662L12.8943 33.4402H9.97778L12.501 26.5312ZM4.22717 34.8494H18.7866V36.2582H4.22717V34.8494Z" fill="url(#paint0_linear)"/>
<path d="M16.2505 39.5459V44.712H31.7493V39.5459H16.2505ZM25.6439 40.9547V43.3032H22.356V40.9547H25.6439ZM17.6594 40.9547H20.9472V43.3032H17.6594V40.9547ZM30.3405 43.3032H27.0527V40.9547H30.3405V43.3032Z" fill="url(#paint1_linear)"/>
<path d="M13.4326 44.2428H12.0234V42.8336H13.4326V44.2428ZM13.4326 41.4248H12.0234V40.0156H13.4326V41.4248Z" fill="url(#paint2_linear)"/>
<path d="M35.9766 44.2428H34.5674V42.8336H35.9766V44.2428ZM35.9766 41.4248H34.5674V40.0156H35.9766V41.4248Z" fill="url(#paint3_linear)"/>
<path d="M28.1799 29.4481H26.7711V28.0393H28.1799V29.4481ZM28.1799 26.6301H26.7711V22.8728H28.1799V26.6301Z" fill="url(#paint4_linear)"/>
</g>
<defs>
<linearGradient id="paint0_linear" x1="2.81379" y1="-4.96552" x2="48" y2="54.4552" gradientUnits="userSpaceOnUse">
<stop offset="0.0102665" stop-color="#ED5026"/>
<stop offset="0.488658" stop-color="#F02748"/>
<stop offset="1" stop-color="#F71694"/>
</linearGradient>
<linearGradient id="paint1_linear" x1="17.1591" y1="39.0115" x2="19.5631" y2="48.4957" gradientUnits="userSpaceOnUse">
<stop offset="0.0102665" stop-color="#ED5026"/>
<stop offset="0.488658" stop-color="#F02748"/>
<stop offset="1" stop-color="#F71694"/>
</linearGradient>
<linearGradient id="paint2_linear" x1="12.106" y1="39.5783" x2="15.143" y2="40.9097" gradientUnits="userSpaceOnUse">
<stop offset="0.0102665" stop-color="#ED5026"/>
<stop offset="0.488658" stop-color="#F02748"/>
<stop offset="1" stop-color="#F71694"/>
</linearGradient>
<linearGradient id="paint3_linear" x1="34.65" y1="39.5783" x2="37.6869" y2="40.9097" gradientUnits="userSpaceOnUse">
<stop offset="0.0102665" stop-color="#ED5026"/>
<stop offset="0.488658" stop-color="#F02748"/>
<stop offset="1" stop-color="#F71694"/>
</linearGradient>
<linearGradient id="paint4_linear" x1="26.8536" y1="22.1926" x2="30.2071" y2="23.1374" gradientUnits="userSpaceOnUse">
<stop offset="0.0102665" stop-color="#ED5026"/>
<stop offset="0.488658" stop-color="#F02748"/>
<stop offset="1" stop-color="#F71694"/>
</linearGradient>
<clipPath id="clip0">
<rect width="48" height="48" fill="white"/>
</clipPath>
</defs>
</svg>
