<svg width="140" height="28" viewBox="0 0 140 28" fill="none" xmlns="http://www.w3.org/2000/svg">
<path d="M0.406762 4.66308C0.240362 5.44555 0.13442 6.23915 0.0898326 7.03716C0.0299442 7.71775 0 8.54377 0 9.51523C0 10.4455 0.0452756 11.2717 0.106362 11.98C0.120735 12.3945 0.151637 12.7922 0.178228 13.1744C0.204818 13.5566 0.253687 13.943 0.298963 14.3105V14.4011C0.298963 14.4285 0.315492 14.4454 0.315492 14.4714C0.315492 14.5177 0.329865 14.5754 0.329865 14.6498V14.7377C0.333024 14.7685 0.343084 14.7982 0.35933 14.8248C0.354136 14.8846 0.358991 14.9449 0.373704 15.0032C0.414291 15.4746 0.479777 15.9437 0.569898 16.4084C0.65189 17.0777 0.771851 17.742 0.929229 18.3982C1.04623 19.0493 1.19711 19.6942 1.38127 20.3303C1.46649 20.7774 1.64111 21.2036 1.89511 21.5845C1.96767 21.7078 2.0723 21.81 2.19838 21.881C2.73495 22.2164 3.35818 22.3953 3.99504 22.3967C4.81383 22.4543 5.46398 22.4831 5.94548 22.4831C6.0963 22.4861 6.24709 22.476 6.39608 22.4529C6.50785 22.4499 6.61487 22.4081 6.69792 22.3349C6.79197 22.2741 6.85759 22.1793 6.88046 22.0714C6.90816 21.9203 6.91853 21.7666 6.91136 21.6133C6.89483 21.465 6.88046 21.2894 6.86681 21.0674C6.85028 20.8615 6.85028 20.6254 6.85028 20.3592C6.85028 19.665 6.86681 19.1352 6.89555 18.7671C6.91688 18.255 7.00849 17.7481 7.16792 17.26C7.27372 16.8647 7.49916 16.5098 7.81472 16.2419C7.92737 16.1582 8.04766 16.0849 8.17405 16.0227C8.28234 15.9778 8.39292 15.9384 8.50535 15.9047C8.60919 15.8811 8.71574 15.871 8.82228 15.8745C10.1491 15.9826 11.485 15.8731 12.7749 15.5506C14.3142 15.0889 15.7625 14.3763 17.0589 13.4428C18.7491 12.3228 19.6834 11.0083 19.8494 9.5349C19.9099 8.89633 19.8596 8.25236 19.7007 7.63016C19.5163 6.99398 19.2681 6.37715 18.9597 5.78864C18.6244 5.23198 18.2352 4.70802 17.7976 4.22395C16.8705 3.2452 15.7445 2.4665 14.4918 1.9377C13.2069 1.41821 11.8482 1.0943 10.463 0.977243C9.06345 0.862273 7.65474 0.916785 6.26888 1.13954C4.94903 1.36213 3.66018 1.7342 2.42836 2.24825C1.91739 2.48432 1.56596 2.64592 1.41792 2.73374C1.21836 2.83949 1.04313 2.98416 0.903078 3.1588C0.763021 3.33343 0.661117 3.53431 0.603675 3.749C0.520077 4.04973 0.45433 4.35493 0.406762 4.66308ZM12.1159 6.2088C12.2366 6.26922 12.3574 6.32684 12.4637 6.38726C12.7942 6.57854 13.0707 6.84735 13.2682 7.16938C13.4657 7.4914 13.578 7.85647 13.5949 8.23158C13.5987 8.56937 13.5209 8.90326 13.3678 9.20609C13.2104 9.51262 12.9951 9.78725 12.7332 10.0155C12.2636 10.4062 11.6863 10.6526 11.0738 10.7237C10.4746 10.8121 9.8688 10.8515 9.26282 10.8417C8.71728 10.8728 8.1794 10.7045 7.75363 10.3696C7.59633 10.2645 7.46258 10.1292 7.36052 9.97192C7.11251 9.52602 7.00217 9.01933 7.04288 8.51333C7.00046 8.00154 7.07813 7.48704 7.26997 7.00906C7.47249 6.63203 7.79694 6.33113 8.19273 6.15329C8.29694 6.12308 8.4342 6.06547 8.61387 6.00505C9.7742 5.71077 11 5.78283 12.1159 6.21091V6.2088Z" fill="white"/>
<path d="M26.8202 16.2725C27.097 15.741 27.5577 15.3228 28.1203 15.0921C28.5946 14.8899 29.1166 14.8187 29.6294 14.8862C30.0807 14.9461 30.4996 15.1484 30.8224 15.4624C30.9744 15.6104 31.0867 15.7928 31.1494 15.9934C31.2121 16.1941 31.2232 16.4067 31.1817 16.6125C31.0789 17.0452 30.8658 17.4455 30.5623 17.776C30.1781 18.1831 29.68 18.4706 29.13 18.603C28.1195 18.8995 27.3951 18.7372 26.974 18.0873C26.7656 17.8345 26.6395 17.5265 26.6121 17.2029C26.5847 16.8794 26.6572 16.5553 26.8202 16.2725ZM29.9104 10.6517C30.6658 11.003 31.1034 11.3325 31.2241 11.6262C31.3075 11.796 31.3434 11.9843 31.3284 12.1721C30.1091 11.8885 28.8502 11.8042 27.6028 11.9227C26.5339 12.017 25.5089 12.3833 24.6297 12.985C24.0402 13.3696 23.5024 13.8251 23.0293 14.341C22.7878 14.6649 22.5154 15.019 22.2459 15.4033C21.707 16.1873 21.4237 17.1125 21.4331 18.0571C21.4186 18.6851 21.5591 19.3074 21.8428 19.8712C22.1341 20.4252 22.5712 20.8932 23.109 21.2272C23.6736 21.5948 24.2877 21.8837 24.9337 22.0858C25.8111 22.3831 26.7374 22.5179 27.6653 22.4834C28.5755 22.4584 29.4724 22.2628 30.3071 21.9073C30.7921 21.685 31.2482 21.4066 31.6654 21.0782C31.7282 21.2953 31.8188 21.5037 31.9349 21.6986C32.0898 21.9981 32.3386 22.2414 32.6449 22.3928C32.9208 22.5282 33.2097 22.6367 33.5073 22.7167C33.9324 22.8487 34.3856 22.8686 34.821 22.7743C35.2142 22.7256 35.585 22.5687 35.8904 22.3218C35.9977 22.2293 36.0839 22.1158 36.1434 21.9886C36.2028 21.8613 36.2342 21.7233 36.2354 21.5834C36.2395 21.4229 36.2139 21.2629 36.1599 21.1113C36.101 20.963 36.0557 20.8176 36.0111 20.6693C35.484 19.4025 35.2565 18.0357 35.3457 16.6708C35.3457 15.0488 35.3914 13.6473 35.4829 12.4665C35.58 11.3802 35.2981 10.2938 34.6831 9.38417C34.2238 8.65214 33.5648 8.0599 32.7801 7.67404C32.1294 7.39703 31.4522 7.1838 30.7585 7.03748C29.8654 6.85932 28.9554 6.77569 28.0441 6.78806C27.3463 6.81505 26.6506 6.87908 25.96 6.97987C25.2645 7.0989 24.5922 7.32289 23.9671 7.64383C23.7194 7.76666 23.4829 7.9098 23.26 8.07171C22.8545 8.36848 22.476 8.699 22.1288 9.05957C21.9251 9.26328 21.7956 9.52677 21.7602 9.80949C21.7247 10.0922 21.7853 10.3785 21.9326 10.6243C22.0529 10.9099 22.2466 11.1604 22.4951 11.3513C22.7435 11.5422 23.0382 11.6672 23.3505 11.714C23.6541 11.7866 23.9706 11.7913 24.2764 11.7277C24.5821 11.6641 24.8692 11.5338 25.1163 11.3465C25.6676 10.9486 26.3082 10.6851 26.9848 10.5779C27.957 10.4187 28.9515 10.4437 29.914 10.6517H29.9104Z" fill="white"/>
<path d="M42.3722 9.26592L42.2795 9.16194C42.3515 8.91429 42.3603 8.65314 42.3051 8.4014C42.2498 8.14966 42.1322 7.91503 41.9625 7.71809C41.5866 7.45417 41.144 7.29576 40.6826 7.26C40.2605 7.22457 39.8363 7.21987 39.4135 7.24595C38.9924 7.26796 38.5787 7.36313 38.1917 7.52699C37.8682 7.67837 37.6069 7.93282 37.4508 8.24856C37.1814 8.7993 37.0233 9.39571 36.9851 10.0051C36.9089 10.7421 36.878 11.6119 36.878 12.6138C36.878 13.6157 36.9535 14.7982 37.0886 16.1542C37.1728 17.2888 37.355 18.4144 37.6333 19.519C37.7535 20.0042 37.915 20.4787 38.1163 20.9375C38.2948 21.392 38.624 21.7749 39.0513 22.0251C39.4058 22.2181 39.7972 22.3377 40.2011 22.3764C40.7413 22.4792 41.2925 22.515 41.8418 22.4832C42.3434 22.4692 42.8365 22.3534 43.2899 22.1432C43.4866 22.0634 43.6524 21.9249 43.7638 21.7475C43.8752 21.5701 43.9264 21.3629 43.9101 21.1553C43.8783 20.9014 43.8277 20.6502 43.7585 20.4035C43.683 20.1372 43.6068 19.8878 43.5479 19.6517C43.0676 18.1506 42.8827 16.574 43.0032 15.0055C43.1548 13.7071 43.6234 12.8977 44.4067 12.585C45.1328 12.2933 45.9317 12.2216 46.7 12.3791C47.4409 12.5576 48.0137 12.1599 48.4212 11.2156C48.8143 10.2713 48.7525 9.54696 48.225 9.03125C47.5474 8.47466 46.6816 8.18551 45.7973 8.22045C44.5742 8.2253 43.3808 8.58956 42.3722 9.26592Z" fill="white"/>
<path d="M52.5633 7.3036C52.3527 7.33382 52.1846 7.34787 52.0947 7.36403C51.6427 7.4378 51.2949 7.49612 51.0843 7.52562C50.725 7.61345 50.4052 7.71814 50.15 7.80666C49.9646 7.85322 49.7935 7.94326 49.6516 8.06899C49.5097 8.19472 49.4013 8.35234 49.3358 8.52823C49.2424 8.84584 49.186 9.17275 49.1676 9.50274C49.152 9.9767 49.2087 10.4503 49.3358 10.9079C49.3735 11.0331 49.4465 11.1453 49.5464 11.2318C49.5744 11.2766 49.6115 11.3152 49.6554 11.3454C49.6992 11.3756 49.749 11.3967 49.8015 11.4075C49.9088 11.4398 50.0205 11.4555 50.1328 11.4539C50.2692 11.444 50.4049 11.4274 50.5395 11.404C51.1713 11.4342 51.8058 11.4201 52.4706 11.3899V11.7876C52.4642 13.716 52.6666 15.6396 53.0743 17.5264C53.359 19.0863 54.1907 20.5004 55.4264 21.5256C55.9211 21.9645 56.5058 22.2953 57.1415 22.4959C57.7772 22.6966 58.4494 22.7624 59.1132 22.6891C59.6478 22.6784 60.1642 22.4968 60.5834 22.1721C61.0025 21.8475 61.3015 21.3976 61.4344 20.8912C61.5979 20.4845 61.5988 20.0326 61.4371 19.6252C61.2753 19.2179 60.9626 18.885 60.5613 18.6927C59.7412 18.3018 59.0969 17.6296 58.751 16.8042C58.3916 15.961 58.3133 14.2354 58.5239 11.6386V11.5508C59.354 11.6213 60.1898 11.5965 61.014 11.477C61.2947 11.4493 61.5626 11.3487 61.7901 11.1856C62.0175 11.0226 62.1962 10.803 62.3076 10.5496C62.5166 10.013 62.5215 9.42078 62.3213 8.88094C62.232 8.56247 62.0365 8.28228 61.7657 8.08489C61.4753 7.89374 61.1723 7.72147 60.8588 7.56919C60.2968 7.45092 59.7277 7.36762 59.1549 7.31976C58.9393 7.3036 58.7308 7.28955 58.5203 7.27339C58.5792 6.36001 58.641 5.20986 58.6999 3.80676C58.8063 3.0852 58.6856 2.599 58.3241 2.36292C57.8725 2.09219 57.3595 1.93482 56.8307 1.90483C56.4143 1.8705 55.9959 1.86604 55.5788 1.89148C55.1707 1.91642 54.7687 2.00048 54.3858 2.1409C54.0251 2.3027 53.7206 2.564 53.5098 2.89268C53.2069 3.34701 52.9927 3.85228 52.8781 4.3829C52.699 5.22315 52.5975 6.07743 52.5748 6.93544C52.5642 7.05787 52.5604 7.18077 52.5633 7.3036Z" fill="white"/>
<path d="M68.3395 8.97219C67.9464 8.36585 67.5561 8.07216 67.1321 8.08551C66.5562 8.148 65.9926 8.29214 65.4591 8.51339C64.8129 8.73533 64.2497 9.1416 63.8421 9.67971C63.5257 10.0447 63.3647 10.5145 63.3922 10.9922C63.454 11.5219 64.1166 12.9545 65.3685 15.2843C66.2517 17.0611 67.2917 18.7592 68.4767 20.3592C67.8293 21.617 66.9896 22.7711 65.9866 23.7816C65.804 23.9572 65.6079 24.1329 65.4117 24.3113C65.2179 24.4729 65.0504 24.6625 64.9151 24.8734C64.4314 25.6561 64.808 26.3777 66.0146 27.0255C66.8209 27.5394 67.7337 27.8722 68.6873 28C69.1851 27.9955 69.6694 27.8412 70.0743 27.5581C70.4957 27.2786 70.8904 26.9626 71.2537 26.6138C71.5684 26.3039 71.9299 25.9196 72.3403 25.4474C74.3869 22.6413 76.1308 19.6355 77.5441 16.4781C78.4338 14.2087 78.9929 12.6875 79.22 11.8922C79.3837 11.2996 79.4801 10.6913 79.5075 10.0781C79.4814 9.71996 79.3499 9.37687 79.1287 9.09022C78.8404 8.75798 78.4992 8.4733 78.1183 8.24711C77.739 8.00992 77.341 7.80247 76.9282 7.62671C76.7856 7.52023 76.6217 7.44419 76.4472 7.40353C76.2726 7.36286 76.0913 7.35847 75.9149 7.39064C75.4938 7.45106 75.1624 7.80517 74.921 8.43891C74.0586 10.4015 72.9974 12.8304 71.7373 15.7256L68.3395 8.97219Z" fill="white"/>
<path d="M99.5221 18.4709C99.498 18.4043 99.4774 18.3366 99.4603 18.2679C99.4294 18.2075 99.4014 18.1639 99.3705 18.1063L99.2641 17.9988C99.2332 17.9847 99.1887 17.9686 99.1298 17.9412C99.0852 17.9412 99.0234 17.925 98.9645 17.925C98.889 17.925 98.8272 17.9412 98.7992 17.9412C97.9206 18.1061 97.0326 18.2188 96.1401 18.2784C95.265 18.3316 94.3868 18.3126 93.5149 18.2215C92.8357 18.178 92.1587 18.1175 91.494 18.0431C90.8148 17.9693 90.1522 17.8674 89.4868 17.7494C88.9609 17.6767 88.4418 17.5629 87.9345 17.4093C87.21 17.2035 86.9211 16.8796 87.0721 16.4074C87.2661 15.8591 87.558 15.3488 87.9345 14.9003C88.2587 14.5146 88.6335 14.1723 89.0491 13.8823C89.4864 13.619 89.9455 13.3922 90.4217 13.2043C90.9214 13.0264 91.4301 12.8742 91.946 12.7483C92.2939 12.6576 92.8357 12.5122 93.5601 12.3337C94.2845 12.1419 94.8149 11.9824 95.1771 11.8482C95.7143 11.6595 96.2299 11.4168 96.7158 11.1239C97.2239 10.8257 97.6902 10.4641 98.1028 10.0482C98.6136 9.54146 99.0147 8.93929 99.2821 8.27763C99.869 6.78718 99.869 5.60705 99.2821 4.73723C98.5407 3.72499 97.6261 2.84552 96.5785 2.13761C95.7843 1.59349 94.9158 1.16115 93.9985 0.853261C93.0726 0.571802 92.1144 0.403999 91.1462 0.353712C90.1304 0.325638 89.1145 0.399326 88.1141 0.573626C87.4115 0.699128 86.7339 0.933465 86.1069 1.26779C85.901 1.37944 85.7082 1.51279 85.532 1.66547C85.5011 1.66547 85.5011 1.67952 85.5011 1.69568C85.4896 1.69744 85.4789 1.70231 85.4702 1.70973H85.4558L85.4249 1.73994C85.3969 1.77015 85.3969 1.7842 85.3969 1.7842C84.9965 2.16291 84.6827 2.62028 84.4763 3.12617C84.3449 3.36332 84.285 3.63202 84.3034 3.90112C84.3218 4.17022 84.4179 4.4287 84.5805 4.6466V4.65994H84.597C84.597 4.674 84.597 4.69016 84.6114 4.69016V4.70351H84.6257V4.73372H84.6423C84.7521 4.85616 84.8857 4.956 85.0354 5.0274C85.423 5.21432 85.8597 5.28123 86.2873 5.21921C86.7983 5.17565 87.2359 5.13139 87.5981 5.10118C87.9912 5.07378 88.3843 5.07378 88.7602 5.07378C89.1306 5.09191 89.4969 5.15782 89.8497 5.2698C90.0743 5.33876 90.2744 5.46833 90.427 5.6436C90.5795 5.81886 90.6784 6.03269 90.7121 6.26047C90.7422 6.47872 90.7134 6.70088 90.6287 6.90495C90.544 7.10902 90.4063 7.28793 90.2291 7.42397C89.5378 8.0096 88.7157 8.42878 87.8288 8.6479C86.8629 8.91418 85.9876 9.18047 85.2043 9.47416C84.5859 9.71461 83.9942 10.0162 83.4385 10.3742C82.8865 10.7187 82.4133 11.171 82.0486 11.7028C81.2473 12.9444 80.6278 14.2896 80.2081 15.6992C79.6497 17.4093 79.8294 18.7674 80.7356 19.7693C81.1539 20.2415 82.1988 20.6567 83.8884 20.9933C85.5643 21.3446 87.389 21.6256 89.3502 21.8497C91.3114 22.0739 93.1685 22.2341 94.9342 22.3219C96.6973 22.4263 97.8886 22.4704 98.5081 22.454C98.5169 22.4466 98.5276 22.4417 98.539 22.4399C98.539 22.4259 98.539 22.4097 98.5699 22.4097L98.6008 22.3795C98.6083 22.3719 98.6182 22.367 98.6288 22.3655L98.6597 22.3352C98.6682 22.3283 98.6784 22.3237 98.6892 22.3219V22.3078L98.7036 22.2917L98.7345 22.2615C98.9212 22.1081 99.0707 21.9161 99.1722 21.6994C99.3942 21.1942 99.5271 20.6559 99.5653 20.1073C99.6286 19.5625 99.6141 19.0118 99.5221 18.4709Z" fill="white"/>
<path d="M118.904 0.370299C117.768 0.128203 116.61 0.00409042 115.448 2.91493e-05C114.29 -0.00184081 113.135 0.0862618 111.992 0.263504C110.56 0.511992 109.156 0.894321 107.798 1.40523C106.352 1.95354 105.033 2.78156 103.921 3.83974C102.815 4.83865 102.009 6.11337 101.588 7.52685C101.168 8.94033 101.15 10.4391 101.535 11.862C101.944 13.9136 102.827 15.8466 104.118 17.513C104.784 18.4142 105.594 19.2055 106.516 19.8569C107.404 20.4761 108.366 20.9867 109.382 21.3773C110.639 21.8803 111.966 22.1939 113.32 22.3076C114.348 22.3952 115.382 22.3952 116.41 22.3076C117.493 22.2013 118.544 21.885 119.5 21.3773C119.894 21.1759 120.273 20.9495 120.636 20.6993C121.458 20.039 122.199 19.2865 122.842 18.4573C123.776 17.3514 123.852 16.5392 123.069 16.0369C122.752 15.8612 122.103 15.5071 121.121 14.9914C120.107 14.4644 119.065 13.9916 117.999 13.575C117.032 13.1848 116.025 12.8977 114.995 12.7185C114.074 12.5843 113.533 12.8063 113.381 13.3663C113.173 14.0205 113.126 14.7137 113.244 15.3891C113.268 15.6216 113.363 15.8416 113.516 16.0214C113.688 16.2738 113.915 16.4857 114.181 16.6418C114.392 16.7872 114.813 17.0233 115.448 17.3634C113.993 17.5062 112.525 17.2888 111.178 16.731C110.531 16.4995 109.946 16.1287 109.465 15.646C108.985 15.1632 108.621 14.581 108.402 13.9424C107.767 12.1859 107.767 10.7863 108.388 9.72682C108.987 8.69111 109.912 7.87278 111.027 7.39419C112.183 6.89471 113.428 6.61981 114.692 6.58479C115.728 6.51504 116.768 6.61429 117.771 6.87848C118.131 6.99652 118.496 7.13071 118.871 7.24875C119.245 7.37738 119.638 7.44226 120.034 7.44056C120.458 7.44056 120.91 7.04008 121.378 6.24614C121.692 5.69518 121.911 5.09713 122.025 4.47629C122.132 3.85239 122.187 3.22103 122.19 2.58841C122.166 2.28956 122.061 2.00234 121.886 1.75634C121.711 1.51033 121.472 1.31444 121.193 1.18883C120.475 0.808906 119.704 0.533178 118.904 0.370299Z" fill="white"/>
<path d="M126.336 13.8983C125.804 14.9345 125.559 16.0891 125.625 17.2469C125.636 18.0201 125.822 18.7814 126.17 19.4755C126.471 20.1259 126.945 20.6857 127.541 21.0971C128.149 21.5141 128.815 21.8424 129.519 22.0716C130.441 22.3721 131.416 22.4868 132.385 22.4089C133.349 22.3257 134.282 22.0331 135.116 21.5524C135.956 21.0811 136.719 20.489 137.378 19.7959C137.844 19.3049 138.272 18.782 138.661 18.2312C139.056 17.671 139.37 17.0606 139.596 16.4171C139.953 15.302 140.076 14.1273 139.955 12.9645C139.9 12.218 139.705 11.4878 139.38 10.8104C139.06 10.2768 138.635 9.81122 138.128 9.44101C137.632 9.06058 137.074 8.76656 136.476 8.5719C135.283 8.26192 134.028 8.26774 132.838 8.58876C131.379 8.96092 130.03 9.66321 128.9 10.6389C128.81 10.7127 128.63 10.875 128.344 11.1413C127.525 11.9463 126.846 12.8778 126.336 13.8983ZM130.258 15.9492C130.258 14.6513 130.862 14.1051 132.069 14.3107C132.591 14.3597 133.087 14.5579 133.495 14.8805C133.903 15.203 134.204 15.6358 134.362 16.1248C134.499 16.5406 134.514 16.9852 134.408 17.4092C134.348 17.6211 134.24 17.8166 134.09 17.9805C133.94 18.1443 133.754 18.272 133.545 18.3535C133.177 18.5278 132.759 18.576 132.36 18.4903C131.96 18.4047 131.602 18.1902 131.342 17.8813C131.036 17.6487 130.782 17.3573 130.595 17.025C130.409 16.6927 130.294 16.3265 130.258 15.9492Z" fill="white"/>
</svg>
